<svg xmlns="http://www.w3.org/2000/svg" xmlns:xlink="http://www.w3.org/1999/xlink" contentStyleType="text/css" data-diagram-type="SALT" height="91px" preserveAspectRatio="none" style="width:538px;height:91px;background:#FFFFFF;" version="1.1" viewBox="0 0 538 91" width="538px" zoomAndPan="magnify"><defs/><g><text fill="#000000" font-family="sans-serif" font-size="12" font-weight="bold" lengthAdjust="spacing" textLength="126.9199" x="6" y="17.1387">Weather Condition</text><text fill="#000000" font-family="sans-serif" font-size="12" font-weight="bold" lengthAdjust="spacing" textLength="79.5645" x="134.9199" y="17.1387">Venue Type</text><text fill="#000000" font-family="sans-serif" font-size="12" font-weight="bold" lengthAdjust="spacing" textLength="64.3242" x="241.7266" y="17.1387">Rationale</text><text fill="#000000" font-family="sans-serif" font-size="12" lengthAdjust="spacing" textLength="74.5898" x="6" y="33.1074">Rain / Storm</text><text fill="#000000" font-family="sans-serif" font-size="12" lengthAdjust="spacing" textLength="50.8887" x="134.9199" y="33.1074">Museum</text><text fill="#000000" font-family="sans-serif" font-size="12" lengthAdjust="spacing" textLength="251.4551" x="241.7266" y="33.1074">Indoor activity protects from precipitation</text><text fill="#000000" font-family="sans-serif" font-size="12" lengthAdjust="spacing" textLength="80.5898" x="6" y="49.0762">Clear / Sunny</text><text fill="#000000" font-family="sans-serif" font-size="12" lengthAdjust="spacing" textLength="26.4727" x="134.9199" y="49.0762">Park</text><text fill="#000000" font-family="sans-serif" font-size="12" lengthAdjust="spacing" textLength="273.6973" x="241.7266" y="49.0762">Outdoor activity maximizes pleasant weather</text><text fill="#000000" font-family="sans-serif" font-size="12" lengthAdjust="spacing" textLength="41.3789" x="6" y="65.0449">Cloudy</text><text fill="#000000" font-family="sans-serif" font-size="12" lengthAdjust="spacing" textLength="66.2344" x="134.9199" y="65.0449">Restaurant</text><text fill="#000000" font-family="sans-serif" font-size="12" lengthAdjust="spacing" textLength="229.043" x="241.7266" y="65.0449">All-weather option with flexible timing</text><text fill="#000000" font-family="sans-serif" font-size="12" lengthAdjust="spacing" textLength="88.9922" x="6" y="81.0137">Default (other)</text><text fill="#000000" font-family="sans-serif" font-size="12" lengthAdjust="spacing" textLength="104.8066" x="134.9199" y="81.0137">Tourist Attraction</text><text fill="#000000" font-family="sans-serif" font-size="12" lengthAdjust="spacing" textLength="288.709" x="241.7266" y="81.0137">General interest point suitable for any condition</text><line style="stroke:#000000;stroke-width:1;" x1="5" x2="133.9199" y1="5" y2="5"/><line style="stroke:#000000;stroke-width:1;" x1="240.7266" x2="531.4355" y1="36.9375" y2="36.9375"/><line style="stroke:#000000;stroke-width:1;" x1="133.9199" x2="240.7266" y1="5" y2="5"/><line style="stroke:#000000;stroke-width:1;" x1="240.7266" x2="531.4355" y1="5" y2="5"/><line style="stroke:#000000;stroke-width:1;" x1="5" x2="133.9199" y1="84.8438" y2="84.8438"/><line style="stroke:#000000;stroke-width:1;" x1="133.9199" x2="240.7266" y1="84.8438" y2="84.8438"/><line style="stroke:#000000;stroke-width:1;" x1="240.7266" x2="531.4355" y1="84.8438" y2="84.8438"/><line style="stroke:#000000;stroke-width:1;" x1="5" x2="133.9199" y1="52.9063" y2="52.9063"/><line style="stroke:#000000;stroke-width:1;" x1="133.9199" x2="240.7266" y1="52.9063" y2="52.9063"/><line style="stroke:#000000;stroke-width:1;" x1="5" x2="133.9199" y1="20.9688" y2="20.9688"/><line style="stroke:#000000;stroke-width:1;" x1="240.7266" x2="531.4355" y1="52.9063" y2="52.9063"/><line style="stroke:#000000;stroke-width:1;" x1="133.9199" x2="240.7266" y1="20.9688" y2="20.9688"/><line style="stroke:#000000;stroke-width:1;" x1="240.7266" x2="531.4355" y1="20.9688" y2="20.9688"/><line style="stroke:#000000;stroke-width:1;" x1="5" x2="133.9199" y1="68.875" y2="68.875"/><line style="stroke:#000000;stroke-width:1;" x1="133.9199" x2="240.7266" y1="68.875" y2="68.875"/><line style="stroke:#000000;stroke-width:1;" x1="5" x2="133.9199" y1="36.9375" y2="36.9375"/><line style="stroke:#000000;stroke-width:1;" x1="240.7266" x2="531.4355" y1="68.875" y2="68.875"/><line style="stroke:#000000;stroke-width:1;" x1="133.9199" x2="240.7266" y1="36.9375" y2="36.9375"/><line style="stroke:#000000;stroke-width:1;" x1="5" x2="5" y1="5" y2="20.9688"/><line style="stroke:#000000;stroke-width:1;" x1="240.7266" x2="240.7266" y1="36.9375" y2="52.9063"/><line style="stroke:#000000;stroke-width:1;" x1="531.4355" x2="531.4355" y1="36.9375" y2="52.9063"/><line style="stroke:#000000;stroke-width:1;" x1="133.9199" x2="133.9199" y1="5" y2="20.9688"/><line style="stroke:#000000;stroke-width:1;" x1="240.7266" x2="240.7266" y1="5" y2="20.9688"/><line style="stroke:#000000;stroke-width:1;" x1="531.4355" x2="531.4355" y1="5" y2="20.9688"/><line style="stroke:#000000;stroke-width:1;" x1="5" x2="5" y1="52.9063" y2="68.875"/><line style="stroke:#000000;stroke-width:1;" x1="133.9199" x2="133.9199" y1="52.9063" y2="68.875"/><line style="stroke:#000000;stroke-width:1;" x1="5" x2="5" y1="20.9688" y2="36.9375"/><line style="stroke:#000000;stroke-width:1;" x1="240.7266" x2="240.7266" y1="52.9063" y2="68.875"/><line style="stroke:#000000;stroke-width:1;" x1="531.4355" x2="531.4355" y1="52.9063" y2="68.875"/><line style="stroke:#000000;stroke-width:1;" x1="133.9199" x2="133.9199" y1="20.9688" y2="36.9375"/><line style="stroke:#000000;stroke-width:1;" x1="240.7266" x2="240.7266" y1="20.9688" y2="36.9375"/><line style="stroke:#000000;stroke-width:1;" x1="531.4355" x2="531.4355" y1="20.9688" y2="36.9375"/><line style="stroke:#000000;stroke-width:1;" x1="5" x2="5" y1="68.875" y2="84.8438"/><line style="stroke:#000000;stroke-width:1;" x1="133.9199" x2="133.9199" y1="68.875" y2="84.8438"/><line style="stroke:#000000;stroke-width:1;" x1="5" x2="5" y1="36.9375" y2="52.9063"/><line style="stroke:#000000;stroke-width:1;" x1="240.7266" x2="240.7266" y1="68.875" y2="84.8438"/><line style="stroke:#000000;stroke-width:1;" x1="531.4355" x2="531.4355" y1="68.875" y2="84.8438"/><line style="stroke:#000000;stroke-width:1;" x1="133.9199" x2="133.9199" y1="36.9375" y2="52.9063"/><!--SRC=[LP31JiCm38RlUGfBNA0IuXcc8I4E23GcE7kjkrfBxIfnw0RbtN5W876AdJ__zzl91vO94uwmm_QmJrgaMslK1FF0HY7_wNd0JcUMFVGOCuMGCLhuk0XDyqfe0oLOgtHihD8qi43Jl90KWkrfelF51gkAqVkmGHQuWMVJDBhuK3ALMjnBfnwFhV4Rsmccf4QjPUYJZjvHonFRDoYi8s6ga29oSkyJfeCVZyN-CqOyyiZlb65oHqOnc7zcTeIMhdetb0rBgje2gnYlpoz0fve5Czi0VQGZxoA1EK_suPPwBD7WKklJAtTkjIJE1YkpLFFTkS0T2IMCm6AKF0SczH9oyKKghQ_3-WRjxmU6poy0]--></g></svg>