<svg xmlns="http://www.w3.org/2000/svg" xmlns:xlink="http://www.w3.org/1999/xlink" contentStyleType="text/css" data-diagram-type="DESCRIPTION" height="662px" preserveAspectRatio="none" style="width:2123px;height:662px;background:#FFFFFF;" version="1.1" viewBox="0 0 2123 662" width="2123px" zoomAndPan="magnify"><defs/><g><!--cluster Presentation Layer--><g class="cluster" data-entity="Presentation Layer" data-source-line="3" data-uid="ent0002" id="cluster_Presentation Layer"><path d="M13.5,11 L164.9385,11 A3.75,3.75 0 0 1 167.4385,13.5 L174.4385,33.2969 L778.5,33.2969 A2.5,2.5 0 0 1 781,35.7969 L781,408.09 A2.5,2.5 0 0 1 778.5,410.59 L13.5,410.59 A2.5,2.5 0 0 1 11,408.09 L11,13.5 A2.5,2.5 0 0 1 13.5,11" fill="#FFFFFF" style="stroke:#000000;stroke-width:1;"/><line style="stroke:#000000;stroke-width:1;" x1="11" x2="174.4385" y1="33.2969" y2="33.2969"/><text fill="#000000" font-family="Verdana" font-size="14" font-weight="bold" lengthAdjust="spacing" textLength="150.4385" x="15" y="25.9951">Presentation Layer</text></g><!--cluster Client--><g class="cluster" data-entity="Client" data-source-line="4" data-uid="ent0003" id="cluster_Client"><rect fill="#FFFFFF" height="316.59" rx="2.5" ry="2.5" style="stroke:#000000;stroke-width:1;" width="706" x="43" y="62"/><text fill="#000000" font-family="Verdana" font-size="14" font-weight="bold" lengthAdjust="spacing" textLength="99.6475" x="346.1763" y="76.9951">Vue.js Client</text></g><!--cluster Business Logic Layer--><g class="cluster" data-entity="Business Logic Layer" data-source-line="13" data-uid="ent0009" id="cluster_Business Logic Layer"><path d="M807.5,214.3 L973.6973,214.3 A3.75,3.75 0 0 1 976.1973,216.8 L983.1973,236.5969 L1368.5,236.5969 A2.5,2.5 0 0 1 1371,239.0969 L1371,653.39 A2.5,2.5 0 0 1 1368.5,655.89 L807.5,655.89 A2.5,2.5 0 0 1 805,653.39 L805,216.8 A2.5,2.5 0 0 1 807.5,214.3" fill="#FFFFFF" style="stroke:#000000;stroke-width:1;"/><line style="stroke:#000000;stroke-width:1;" x1="805" x2="983.1973" y1="236.5969" y2="236.5969"/><text fill="#000000" font-family="Verdana" font-size="14" font-weight="bold" lengthAdjust="spacing" textLength="165.1973" x="809" y="229.2951">Business Logic Layer</text></g><!--cluster Server--><g class="cluster" data-entity="Server" data-source-line="14" data-uid="ent0010" id="cluster_Server"><rect fill="#FFFFFF" height="358.59" rx="2.5" ry="2.5" style="stroke:#000000;stroke-width:1;" width="502" x="837" y="265.3"/><text fill="#000000" font-family="Verdana" font-size="14" font-weight="bold" lengthAdjust="spacing" textLength="137.0127" x="1019.4937" y="280.2951">Express.js Server</text></g><!--cluster Data Service Layer--><g class="cluster" data-entity="Data Service Layer" data-source-line="22" data-uid="ent0015" id="cluster_Data Service Layer"><path d="M1397.5,459.59 L1547.5508,459.59 A3.75,3.75 0 0 1 1550.0508,462.09 L1557.0508,481.8869 L2113.5,481.8869 A2.5,2.5 0 0 1 2116,484.3869 L2116,653.39 A2.5,2.5 0 0 1 2113.5,655.89 L1397.5,655.89 A2.5,2.5 0 0 1 1395,653.39 L1395,462.09 A2.5,2.5 0 0 1 1397.5,459.59" fill="#FFFFFF" style="stroke:#000000;stroke-width:1;"/><line style="stroke:#000000;stroke-width:1;" x1="1395" x2="1557.0508" y1="481.8869" y2="481.8869"/><text fill="#000000" font-family="Verdana" font-size="14" font-weight="bold" lengthAdjust="spacing" textLength="149.0508" x="1399" y="474.5851">Data Service Layer</text></g><!--cluster OWM--><g class="cluster" data-entity="OWM" data-source-line="23" data-uid="ent0016" id="cluster_OWM"><rect fill="#FFFFFF" height="113.3" rx="2.5" ry="2.5" style="stroke:#000000;stroke-width:1;" width="380" x="1427" y="510.59"/><text fill="#000000" font-family="Verdana" font-size="14" font-weight="bold" lengthAdjust="spacing" textLength="142.2285" x="1545.8857" y="525.5851">OpenWeatherMap</text></g><!--cluster GP--><g class="cluster" data-entity="GP" data-source-line="28" data-uid="ent0019" id="cluster_GP"><rect fill="#FFFFFF" height="113.3" rx="2.5" ry="2.5" style="stroke:#000000;stroke-width:1;" width="237" x="1847" y="510.59"/><text fill="#000000" font-family="Verdana" font-size="14" font-weight="bold" lengthAdjust="spacing" textLength="110.5508" x="1910.2246" y="525.5851">Google Places</text></g><!--entity v-model: city input--><g class="entity" data-entity="v-model: city input" data-source-line="5" data-uid="ent0004" id="entity_v-model: city input"><rect fill="#FFFFFF" height="46.2969" rx="2.5" ry="2.5" style="stroke:#000000;stroke-width:1;" width="171.9199" x="67.04" y="105"/><rect fill="#FFFFFF" height="10" style="stroke:#000000;stroke-width:1;" width="15" x="218.9599" y="110"/><rect fill="#FFFFFF" height="2" style="stroke:#000000;stroke-width:1;" width="4" x="216.9599" y="112"/><rect fill="#FFFFFF" height="2" style="stroke:#000000;stroke-width:1;" width="4" x="216.9599" y="116"/><text fill="#000000" font-family="Verdana" font-size="14" lengthAdjust="spacing" textLength="131.9199" x="82.04" y="137.9951">v-model: city input</text></g><!--entity v-if: conditional rendering--><g class="entity" data-entity="v-if: conditional rendering" data-source-line="6" data-uid="ent0005" id="entity_v-if: conditional rendering"><rect fill="#FFFFFF" height="46.2969" rx="2.5" ry="2.5" style="stroke:#000000;stroke-width:1;" width="221.1182" x="274.44" y="105"/><rect fill="#FFFFFF" height="10" style="stroke:#000000;stroke-width:1;" width="15" x="475.5582" y="110"/><rect fill="#FFFFFF" height="2" style="stroke:#000000;stroke-width:1;" width="4" x="473.5582" y="112"/><rect fill="#FFFFFF" height="2" style="stroke:#000000;stroke-width:1;" width="4" x="473.5582" y="116"/><text fill="#000000" font-family="Verdana" font-size="14" lengthAdjust="spacing" textLength="181.1182" x="289.44" y="137.9951">v-if: conditional rendering</text></g><!--entity v-for: list rendering--><g class="entity" data-entity="v-for: list rendering" data-source-line="7" data-uid="ent0006" id="entity_v-for: list rendering"><rect fill="#FFFFFF" height="46.2969" rx="2.5" ry="2.5" style="stroke:#000000;stroke-width:1;" width="174.9141" x="530.54" y="105"/><rect fill="#FFFFFF" height="10" style="stroke:#000000;stroke-width:1;" width="15" x="685.4541" y="110"/><rect fill="#FFFFFF" height="2" style="stroke:#000000;stroke-width:1;" width="4" x="683.4541" y="112"/><rect fill="#FFFFFF" height="2" style="stroke:#000000;stroke-width:1;" width="4" x="683.4541" y="116"/><text fill="#000000" font-family="Verdana" font-size="14" lengthAdjust="spacing" textLength="134.9141" x="545.54" y="137.9951">v-for: list rendering</text></g><!--entity @submit.prevent--><g class="entity" data-entity="@submit.prevent" data-source-line="8" data-uid="ent0007" id="entity_@submit.prevent"><rect fill="#FFFFFF" height="46.2969" rx="2.5" ry="2.5" style="stroke:#000000;stroke-width:1;" width="161.0371" x="72.48" y="308.3"/><rect fill="#FFFFFF" height="10" style="stroke:#000000;stroke-width:1;" width="15" x="213.5171" y="313.3"/><rect fill="#FFFFFF" height="2" style="stroke:#000000;stroke-width:1;" width="4" x="211.5171" y="315.3"/><rect fill="#FFFFFF" height="2" style="stroke:#000000;stroke-width:1;" width="4" x="211.5171" y="319.3"/><text fill="#000000" font-family="Verdana" font-size="14" lengthAdjust="spacing" textLength="121.0371" x="87.48" y="341.2951">@submit.prevent</text></g><!--entity Computed Properties--><g class="entity" data-entity="Computed Properties" data-source-line="9" data-uid="ent0008" id="entity_Computed Properties"><rect fill="#FFFFFF" height="46.2969" rx="2.5" ry="2.5" style="stroke:#000000;stroke-width:1;" width="188.4834" x="268.76" y="308.3"/><rect fill="#FFFFFF" height="10" style="stroke:#000000;stroke-width:1;" width="15" x="437.2434" y="313.3"/><rect fill="#FFFFFF" height="2" style="stroke:#000000;stroke-width:1;" width="4" x="435.2434" y="315.3"/><rect fill="#FFFFFF" height="2" style="stroke:#000000;stroke-width:1;" width="4" x="435.2434" y="319.3"/><text fill="#000000" font-family="Verdana" font-size="14" lengthAdjust="spacing" textLength="148.4834" x="283.76" y="341.2951">Computed Properties</text></g><!--entity GET /api/weather--><g class="entity" data-entity="GET /api/weather" data-source-line="15" data-uid="ent0011" id="entity_GET /api/weather"><rect fill="#FFFFFF" height="46.2969" rx="2.5" ry="2.5" style="stroke:#000000;stroke-width:1;" width="160.8594" x="860.57" y="308.3"/><rect fill="#FFFFFF" height="10" style="stroke:#000000;stroke-width:1;" width="15" x="1001.4294" y="313.3"/><rect fill="#FFFFFF" height="2" style="stroke:#000000;stroke-width:1;" width="4" x="999.4294" y="315.3"/><rect fill="#FFFFFF" height="2" style="stroke:#000000;stroke-width:1;" width="4" x="999.4294" y="319.3"/><text fill="#000000" font-family="Verdana" font-size="14" lengthAdjust="spacing" textLength="120.8594" x="875.57" y="341.2951">GET /api/weather</text></g><!--entity POST /api/generate-itinerary--><g class="entity" data-entity="POST /api/generate-itinerary" data-source-line="16" data-uid="ent0012" id="entity_POST /api/generate-itinerary"><rect fill="#FFFFFF" height="46.2969" rx="2.5" ry="2.5" style="stroke:#000000;stroke-width:1;" width="239.7461" x="1056.13" y="308.3"/><rect fill="#FFFFFF" height="10" style="stroke:#000000;stroke-width:1;" width="15" x="1275.8761" y="313.3"/><rect fill="#FFFFFF" height="2" style="stroke:#000000;stroke-width:1;" width="4" x="1273.8761" y="315.3"/><rect fill="#FFFFFF" height="2" style="stroke:#000000;stroke-width:1;" width="4" x="1273.8761" y="319.3"/><text fill="#000000" font-family="Verdana" font-size="14" lengthAdjust="spacing" textLength="199.7461" x="1071.13" y="341.2951">POST /api/generate-itinerary</text></g><!--entity Services Layer--><g class="entity" data-entity="Services Layer" data-source-line="17" data-uid="ent0013" id="entity_Services Layer"><rect fill="#FFFFFF" height="46.2969" rx="2.5" ry="2.5" style="stroke:#000000;stroke-width:1;" width="142.5186" x="869.74" y="553.59"/><rect fill="#FFFFFF" height="10" style="stroke:#000000;stroke-width:1;" width="15" x="992.2586" y="558.59"/><rect fill="#FFFFFF" height="2" style="stroke:#000000;stroke-width:1;" width="4" x="990.2586" y="560.59"/><rect fill="#FFFFFF" height="2" style="stroke:#000000;stroke-width:1;" width="4" x="990.2586" y="564.59"/><text fill="#000000" font-family="Verdana" font-size="14" lengthAdjust="spacing" textLength="102.5186" x="884.74" y="586.5851">Services Layer</text></g><!--entity CORS + body-parser--><g class="entity" data-entity="CORS + body-parser" data-source-line="18" data-uid="ent0014" id="entity_CORS + body-parser"><rect fill="#FFFFFF" height="46.2969" rx="2.5" ry="2.5" style="stroke:#000000;stroke-width:1;" width="184.6006" x="1047.7" y="553.59"/><rect fill="#FFFFFF" height="10" style="stroke:#000000;stroke-width:1;" width="15" x="1212.3006" y="558.59"/><rect fill="#FFFFFF" height="2" style="stroke:#000000;stroke-width:1;" width="4" x="1210.3006" y="560.59"/><rect fill="#FFFFFF" height="2" style="stroke:#000000;stroke-width:1;" width="4" x="1210.3006" y="564.59"/><text fill="#000000" font-family="Verdana" font-size="14" lengthAdjust="spacing" textLength="144.6006" x="1062.7" y="586.5851">CORS + body-parser</text></g><!--entity Forecast API--><g class="entity" data-entity="Forecast API" data-source-line="24" data-uid="ent0017" id="entity_Forecast API"><rect fill="#FFFFFF" height="46.2969" rx="2.5" ry="2.5" style="stroke:#000000;stroke-width:1;" width="126.6455" x="1656.68" y="553.59"/><rect fill="#FFFFFF" height="10" style="stroke:#000000;stroke-width:1;" width="15" x="1763.3255" y="558.59"/><rect fill="#FFFFFF" height="2" style="stroke:#000000;stroke-width:1;" width="4" x="1761.3255" y="560.59"/><rect fill="#FFFFFF" height="2" style="stroke:#000000;stroke-width:1;" width="4" x="1761.3255" y="564.59"/><text fill="#000000" font-family="Verdana" font-size="14" lengthAdjust="spacing" textLength="86.6455" x="1671.68" y="586.5851">Forecast API</text></g><!--entity Air Pollution API--><g class="entity" data-entity="Air Pollution API" data-source-line="25" data-uid="ent0018" id="entity_Air Pollution API"><rect fill="#FFFFFF" height="46.2969" rx="2.5" ry="2.5" style="stroke:#000000;stroke-width:1;" width="150.749" x="1470.63" y="553.59"/><rect fill="#FFFFFF" height="10" style="stroke:#000000;stroke-width:1;" width="15" x="1601.379" y="558.59"/><rect fill="#FFFFFF" height="2" style="stroke:#000000;stroke-width:1;" width="4" x="1599.379" y="560.59"/><rect fill="#FFFFFF" height="2" style="stroke:#000000;stroke-width:1;" width="4" x="1599.379" y="564.59"/><text fill="#000000" font-family="Verdana" font-size="14" lengthAdjust="spacing" textLength="110.749" x="1485.63" y="586.5851">Air Pollution API</text></g><!--entity Nearby Search API--><g class="entity" data-entity="Nearby Search API" data-source-line="29" data-uid="ent0020" id="entity_Nearby Search API"><rect fill="#FFFFFF" height="46.2969" rx="2.5" ry="2.5" style="stroke:#000000;stroke-width:1;" width="170.0469" x="1889.98" y="553.59"/><rect fill="#FFFFFF" height="10" style="stroke:#000000;stroke-width:1;" width="15" x="2040.0269" y="558.59"/><rect fill="#FFFFFF" height="2" style="stroke:#000000;stroke-width:1;" width="4" x="2038.0269" y="560.59"/><rect fill="#FFFFFF" height="2" style="stroke:#000000;stroke-width:1;" width="4" x="2038.0269" y="564.59"/><text fill="#000000" font-family="Verdana" font-size="14" lengthAdjust="spacing" textLength="130.0469" x="1904.98" y="586.5851">Nearby Search API</text></g><g class="entity" data-entity="GMN27" data-source-line="41" data-uid="ent0028" id="entity_GMN27"><path d="M796.88,115.58 L796.88,140.7128 L1015.1271,140.7128 L1015.1271,125.58 L1005.1271,115.58 L796.88,115.58" fill="#FFFFFF" style="stroke:#000000;stroke-width:1;"/><path d="M1005.1271,115.58 L1005.1271,125.58 L1015.1271,125.58 L1005.1271,115.58" fill="#FFFFFF" style="stroke:#000000;stroke-width:1;"/><text fill="#000000" font-family="Verdana" font-size="13" lengthAdjust="spacing" textLength="197.2471" x="802.88" y="132.6469">CDN: vue@3/dist/vue.global.js</text></g><g class="entity" data-entity="GMN30" data-source-line="45" data-uid="ent0031" id="entity_GMN30"><path d="M1386.9,303.75 L1386.9,359.1484 L1523.11,359.1484 L1523.11,313.75 L1513.11,303.75 L1386.9,303.75" fill="#FFFFFF" style="stroke:#000000;stroke-width:1;"/><path d="M1513.11,303.75 L1513.11,313.75 L1523.11,313.75 L1513.11,303.75" fill="#FFFFFF" style="stroke:#000000;stroke-width:1;"/><text fill="#000000" font-family="Verdana" font-size="13" lengthAdjust="spacing" textLength="107.834" x="1392.9" y="320.8169">Modular routing:</text><text fill="#000000" font-family="Verdana" font-size="13" lengthAdjust="spacing" textLength="113.5786" x="1392.9" y="335.9497">routes/weather.js</text><text fill="#000000" font-family="Verdana" font-size="13" lengthAdjust="spacing" textLength="115.21" x="1392.9" y="351.0825">routes/itinerary.js</text></g><!--link Client to Server--><g class="link" data-entity-1="Client" data-entity-2="Server" data-source-line="33" data-uid="lnk21" id="link_Client_Server"><path d="M749.0911,135.2813 C749.1844,135.3475 749.2784,135.414 749.3729,135.4809 C749.5621,135.6145 749.7538,135.7495 749.948,135.8855 C750.3364,136.1576 750.7347,136.4343 751.1423,136.7147 C751.9577,137.2757 752.8105,137.8519 753.6963,138.4375 C760.7825,143.1225 769.98,148.41 779,151.3 C892.41,187.59 1226.48,123.44 1312,206.3 C1321.865,215.8575 1328.025,228.2294 1331.7063,241.4516 C1333.5469,248.0627 1334.7678,254.8863 1335.5223,261.6771 C1335.6167,262.5259 1335.7037,263.3742 1335.7837,264.2216 C1335.8037,264.4334 1335.283,258.6696 1335.3022,258.8813" fill="none" id="Client-to-Server" style="stroke:#000000;stroke-width:1;"/><polygon fill="#000000" points="1335.8425,264.8569,1339.0158,255.5333,1335.3922,259.8772,1331.0483,256.2536,1335.8425,264.8569" style="stroke:#000000;stroke-width:1;"/><text fill="#000000" font-family="Verdana" font-size="13" lengthAdjust="spacing" textLength="70.6875" x="1301" y="194.3669">HTTP fetch</text></g><!--link Server to Client--><g class="link" data-entity-1="Server" data-entity-2="Client" data-source-line="38" data-uid="lnk26" id="link_Server_Client"><path d="M1336.5444,264.7983 C1336.5091,264.3739 1336.472,263.9492 1336.433,263.5244 C1336.3551,262.6748 1336.2699,261.8244 1336.1771,260.9739 C1335.4348,254.1699 1334.206,247.3545 1332.3292,240.7822 C1328.5756,227.6375 1322.23,215.465 1312,206.3 C1304.17,199.28 1133.47,199.23 1123,198.3 C969.3,184.57 924.9,201.55 779,151.3 C770.05,148.215 760.855,142.92 753.7525,138.28 C752.8647,137.7 752.0096,137.1302 751.1917,136.5763 C750.7828,136.2993 750.3832,136.0263 749.9934,135.758 C749.7986,135.6238 749.6062,135.4908 749.4163,135.359 C749.3214,135.2931 754.1501,138.6575 754.0565,138.5922" fill="none" id="Server-to-Client" style="stroke:#000000;stroke-width:1;"/><polygon fill="#000000" points="749.1335,135.1623,754.2313,143.5892,753.236,138.0206,758.8046,137.0252,749.1335,135.1623" style="stroke:#000000;stroke-width:1;"/><text fill="#000000" font-family="Verdana" font-size="13" lengthAdjust="spacing" textLength="138.8423" x="1124" y="194.3669">aggregated response</text></g><!--link Server to OWM--><g class="link" data-entity-1="Server" data-entity-2="OWM" data-source-line="34" data-uid="lnk22" id="link_Server_OWM"><path d="M1339.1096,371.1766 C1339.204,371.4665 1339.2995,371.7569 1339.396,372.0478 C1339.5889,372.6294 1339.7862,373.2129 1339.9877,373.7978 C1340.7939,376.1372 1341.6694,378.4995 1342.6196,380.8621 C1344.5201,385.5873 1346.7198,390.3139 1349.263,394.8628 C1354.3494,403.9606 1360.81,412.3475 1369,418.59 C1388.3,433.3 1406.43,408.87 1423,426.59 C1434.18,438.5425 1440.5844,453.645 1443.8864,469.6233 C1445.5374,477.6124 1446.4129,485.8205 1446.7219,493.9633 C1446.8764,498.0346 1446.8893,502.0897 1446.7867,506.0929 C1446.761,507.0937 1446.7282,508.0912 1446.6885,509.085 C1446.6687,509.5818 1446.9279,504.0843 1446.9048,504.5793" fill="none" id="Server-to-OWM" style="stroke:#000000;stroke-width:1;"/><polygon fill="#000000" points="1446.624,510.5727,1451.0408,501.7697,1446.858,505.5782,1443.0495,501.3953,1446.624,510.5727" style="stroke:#000000;stroke-width:1;"/><text fill="#000000" font-family="Verdana" font-size="13" lengthAdjust="spacing" textLength="101.0737" x="1435" y="439.6569">axios + API key</text></g><!--link OWM to Server--><g class="link" data-entity-1="OWM" data-entity-2="Server" data-source-line="36" data-uid="lnk24" id="link_OWM_Server"><path d="M1426.8602,566.5418 C1426.6857,566.3392 1426.5089,566.1336 1426.3298,565.925 C1425.6134,565.0905 1424.86,564.2077 1424.0725,563.2787 C1417.7725,555.8469 1409.29,545.455 1400.09,533.1075 C1381.69,508.4125 1360.42,475.895 1348,443.59 C1345.7938,437.8512 1343.8731,431.842 1342.2012,425.7158 C1341.3653,422.6527 1340.5915,419.5603 1339.8753,416.4578 C1339.6963,415.6822 1339.5208,414.906 1339.3489,414.1294 C1339.2629,413.7411 1340.4491,419.2165 1340.3649,418.8281" fill="none" id="OWM-to-Server" style="stroke:#000000;stroke-width:1;"/><polygon fill="#000000" points="1339.0937,412.9643,1337.0914,422.6075,1340.153,417.8508,1344.9097,420.9125,1339.0937,412.9643" style="stroke:#000000;stroke-width:1;"/><text fill="#000000" font-family="Verdana" font-size="13" lengthAdjust="spacing" textLength="65.457" x="1349" y="439.6569">JSON data</text></g><!--link Server to GP--><g class="link" data-entity-1="Server" data-entity-2="GP" data-source-line="35" data-uid="lnk23" id="link_Server_GP"><path d="M1339.0286,373.196 C1339.0765,373.3429 1339.1247,373.4898 1339.1731,373.6368 C1339.27,373.9309 1339.3681,374.2252 1339.4672,374.5199 C1340.2605,376.8771 1341.1263,379.2525 1342.0712,381.6223 C1343.9609,386.3621 1346.1666,391.0799 1348.7398,395.587 C1353.8863,404.6012 1360.5025,412.7725 1369,418.59 C1385.15,429.65 1525.51,424.73 1545,426.59 C1596.87,431.56 1609.16,438.3 1661,443.59 C1676.28,445.15 1786.35,442.89 1799,451.59 C1823.545,468.475 1837.495,498.815 1845.3338,525.275 C1845.8237,526.9287 1846.2897,528.5673 1846.733,530.1865 C1846.7884,530.3889 1845.2737,524.8 1845.3284,525.0018" fill="none" id="Server-to-GP" style="stroke:#000000;stroke-width:1;"/><polygon fill="#000000" points="1846.8982,530.7928,1848.4041,521.0598,1845.59,525.967,1840.6828,523.1529,1846.8982,530.7928" style="stroke:#000000;stroke-width:1;"/><text fill="#000000" font-family="Verdana" font-size="13" lengthAdjust="spacing" textLength="129.4922" x="1662" y="439.6569">axios + coordinates</text></g><!--link GP to Server--><g class="link" data-entity-1="GP" data-entity-2="Server" data-source-line="37" data-uid="lnk25" id="link_GP_Server"><path d="M1846.9332,514.1438 C1846.8735,513.8944 1846.8132,513.6447 1846.7526,513.3947 C1846.6312,512.8948 1846.5081,512.3938 1846.3832,511.8919 C1846.1333,510.8881 1845.8762,509.8804 1845.6116,508.8696 C1845.0825,506.8478 1844.5236,504.8133 1843.9331,502.7711 C1842.7522,498.6868 1841.4453,494.5718 1839.9989,490.4673 C1837.1062,482.2583 1833.6557,474.0912 1829.5398,466.2945 C1821.3081,450.7012 1810.415,436.59 1796,426.59 C1776.5,413.07 1388.75,431.74 1369,418.59 C1360.425,412.8875 1353.7694,404.7744 1348.6077,395.7825 C1346.0268,391.2866 1343.8194,386.5709 1341.9323,381.8271 C1340.9888,379.4552 1340.1253,377.0762 1339.3353,374.7142 C1339.2365,374.4189 1341.0057,379.8261 1340.9092,379.5314" fill="none" id="GP-to-Server" style="stroke:#000000;stroke-width:1;"/><polygon fill="#000000" points="1339.0424,373.8292,1338.0411,383.627,1340.5981,378.581,1345.6441,381.138,1339.0424,373.8292" style="stroke:#000000;stroke-width:1;"/><text fill="#000000" font-family="Verdana" font-size="13" lengthAdjust="spacing" textLength="77.9238" x="1812" y="439.6569">JSON places</text></g><!--link Client to GMN27--><g class="link" data-entity-1="Client" data-entity-2="GMN27" data-source-line="41" data-uid="lnk29" id="link_Client_GMN27"><path d="M749.1459,128.15 C749.2173,128.15 749.2888,128.15 749.3603,128.15 C749.6463,128.15 749.9322,128.15 750.2181,128.15 C750.79,128.15 751.3619,128.15 751.9337,128.15 C753.0775,128.15 754.2213,128.15 755.365,128.15 C759.94,128.15 764.515,128.15 769.09,128.15 C778.24,128.15 787.39,128.15 796.54,128.15" fill="none" id="Client-GMN27" style="stroke:#000000;stroke-width:1;stroke-dasharray:7.0,7.0;"/></g><!--link GMN30 to Server--><g class="link" data-entity-1="GMN30" data-entity-2="Server" data-source-line="45" data-uid="lnk32" id="link_GMN30_Server"><path d="M1386.49,331.44 C1377.32,331.44 1368.1525,331.44 1358.985,331.44 C1354.4013,331.44 1349.8175,331.44 1345.2334,331.44 C1344.0874,331.44 1342.9414,331.44 1341.7953,331.44 C1341.2223,331.44 1340.6493,331.44 1340.0762,331.44 C1339.7897,331.44 1339.5032,331.44 1339.2166,331.44 C1339.145,331.44 1339.0734,331.44 1339.0018,331.44" fill="none" id="GMN30-Server" style="stroke:#000000;stroke-width:1;stroke-dasharray:7.0,7.0;"/></g><!--SRC=[RLB1Rjim3BthAxXSXoI7tNmOsgLjjg59Z2LO3yKEZ4qhMXL9aEIinf1_7-N8RRBsO9WW7n_Ve_WXxcXFu3Gg8uJ3wWabmQZq5CX4ZCeQkCUE_0Z-2W1FLKGZDKD-jZJv7M2c5GD7W4FOum0U3-EzhKaNKAdOWJAkZR-6YceuRKsj4ZzgfZKrUMNa2wAnlW2jGdnJkmhjTg_Yn7awyBYSdTaz3w0QIcyT-QWefCfH7CzSVMc3CXG2t5kfgkphFrktpqmSGhAs9dz8nd481slpsmrCqQdf7qBUdyyQojKwvoKPyXXfp0PJvBiCIJoged2QFMXV_LZ3HzZQkXixzE5Kk9H-Wn4XTxylVEN8F9pqBD3rgbSFYq7odMKeyZgloszvxBNoK5gjs_wHS_x8toNltDhqBpMoxfvsNWwiIqA_xLWN-chtIi72yosCnv-7tHNmTRCfeQ5OxKJEfN8IMG0-Anju2Sm1JzIT0tZSQxsorjVAy6w3I9qN0xwlLqkeULE2UzvMN6_Xd3ghP7efFKbC1yIlxwm998InaS0hkOjWcumLivjb0OUMhZvDQpxFAOSJgUqMDP-Cu5k5r9QRDJLzxscaMDYwrUZ1MzwvaOL80ONXZ191phpSpGNfFm00]--></g></svg>