<svg xmlns="http://www.w3.org/2000/svg" xmlns:xlink="http://www.w3.org/1999/xlink" contentStyleType="text/css" data-diagram-type="DESCRIPTION" height="791px" preserveAspectRatio="none" style="width:867px;height:791px;background:#FFFFFF;" version="1.1" viewBox="0 0 867 791" width="867px" zoomAndPan="magnify"><title>Internet App System Architecture</title><defs/><g><text fill="#000000" font-family="Verdana" font-size="22" font-weight="bold" lengthAdjust="spacing" textLength="418.9238" x="219.6566" y="35.4209">Internet App System Architecture</text><!--cluster Browser--><g class="cluster" data-entity="Browser" data-source-line="7" data-uid="ent0003" id="cluster_Browser"><polygon fill="#FFFFFF" points="77.86,206.8994,87.86,196.8994,506.86,196.8994,506.86,382.1694,496.86,392.1694,77.86,392.1694,77.86,206.8994" style="stroke:#000000;stroke-width:1;"/><line style="stroke:#000000;stroke-width:1;" x1="496.86" x2="506.86" y1="206.8994" y2="196.8994"/><line style="stroke:#000000;stroke-width:1;" x1="77.86" x2="496.86" y1="206.8994" y2="206.8994"/><line style="stroke:#000000;stroke-width:1;" x1="496.86" x2="496.86" y1="206.8994" y2="392.1694"/><text fill="#000000" font-family="Verdana" font-size="14" font-weight="bold" lengthAdjust="spacing" textLength="64.8594" x="255.9303" y="222.8945">Browser</text></g><!--cluster client--><g class="cluster" data-entity="client" data-source-line="8" data-uid="ent0004" id="cluster_client"><rect fill="#FFFFFF" height="107.27" rx="2.5" ry="2.5" style="stroke:#000000;stroke-width:1;" width="365" x="109.86" y="252.8994"/><rect fill="#FFFFFF" height="10" style="stroke:#000000;stroke-width:1;" width="15" x="454.86" y="257.8994"/><rect fill="#FFFFFF" height="2" style="stroke:#000000;stroke-width:1;" width="4" x="452.86" y="259.8994"/><rect fill="#FFFFFF" height="2" style="stroke:#000000;stroke-width:1;" width="4" x="452.86" y="263.8994"/><text fill="#000000" font-family="Verdana" font-size="14" font-weight="bold" lengthAdjust="spacing" textLength="51.748" x="266.486" y="278.8945">Vue UI</text></g><!--cluster server--><g class="cluster" data-entity="server" data-source-line="16" data-uid="ent0008" id="cluster_server"><polygon fill="#FFFFFF" points="85.86,451.1694,95.86,441.1694,674.86,441.1694,674.86,656.7594,664.86,666.7594,85.86,666.7594,85.86,451.1694" style="stroke:#000000;stroke-width:1;"/><line style="stroke:#000000;stroke-width:1;" x1="664.86" x2="674.86" y1="451.1694" y2="441.1694"/><line style="stroke:#000000;stroke-width:1;" x1="85.86" x2="664.86" y1="451.1694" y2="451.1694"/><line style="stroke:#000000;stroke-width:1;" x1="664.86" x2="664.86" y1="451.1694" y2="666.7594"/><text fill="#000000" font-family="Verdana" font-size="14" font-weight="bold" lengthAdjust="spacing" textLength="118.5625" x="317.0788" y="467.1645">Express Server</text></g><g class="entity" data-entity="GMN5" data-source-line="10" data-uid="ent0006" id="entity_GMN5"><path d="M133.73,295.8994 L133.73,336.165 A0,0 0 0 0 133.73,336.165 L431.9893,336.165 A0,0 0 0 0 431.9893,336.165 L431.9893,305.8994 L421.9893,295.8994 L295.02,295.8994 L358.83,134.3594 L287.02,295.8994 L133.73,295.8994 A0,0 0 0 0 133.73,295.8994" fill="#FFFFFF" style="stroke:#000000;stroke-width:1;"/><path d="M421.9893,295.8994 L421.9893,305.8994 L431.9893,305.8994 L421.9893,295.8994" fill="#FFFFFF" style="stroke:#000000;stroke-width:1;"/><text fill="#000000" font-family="Verdana" font-size="13" lengthAdjust="spacing" textLength="277.2593" x="139.73" y="312.9663">Renders weather forecasts and itineraries.</text><text fill="#000000" font-family="Verdana" font-size="13" lengthAdjust="spacing" textLength="176.4712" x="139.73" y="328.0991">Fetches data via Fetch API.</text></g><!--entity weather--><g class="entity" data-entity="weather" data-source-line="17" data-uid="ent0009" id="entity_weather"><rect fill="#FFFFFF" height="46.2969" rx="2.5" ry="2.5" style="stroke:#000000;stroke-width:1;" width="151.2412" x="158.24" y="481.1694"/><rect fill="#FFFFFF" height="10" style="stroke:#000000;stroke-width:1;" width="15" x="289.4812" y="486.1694"/><rect fill="#FFFFFF" height="2" style="stroke:#000000;stroke-width:1;" width="4" x="287.4812" y="488.1694"/><rect fill="#FFFFFF" height="2" style="stroke:#000000;stroke-width:1;" width="4" x="287.4812" y="492.1694"/><text fill="#000000" font-family="Verdana" font-size="14" lengthAdjust="spacing" textLength="111.2412" x="173.24" y="514.1645">Weather Router</text></g><!--entity itinerary--><g class="entity" data-entity="itinerary" data-source-line="18" data-uid="ent0010" id="entity_itinerary"><rect fill="#FFFFFF" height="46.2969" rx="2.5" ry="2.5" style="stroke:#000000;stroke-width:1;" width="150.8447" x="447.43" y="481.1694"/><rect fill="#FFFFFF" height="10" style="stroke:#000000;stroke-width:1;" width="15" x="578.2747" y="486.1694"/><rect fill="#FFFFFF" height="2" style="stroke:#000000;stroke-width:1;" width="4" x="576.2747" y="488.1694"/><rect fill="#FFFFFF" height="2" style="stroke:#000000;stroke-width:1;" width="4" x="576.2747" y="492.1694"/><text fill="#000000" font-family="Verdana" font-size="14" lengthAdjust="spacing" textLength="110.8447" x="462.43" y="514.1645">Itinerary Router</text></g><!--entity openweather--><g class="entity" data-entity="openweather" data-source-line="19" data-uid="ent0011" id="entity_openweather"><rect fill="#FFFFFF" height="46.2969" rx="2.5" ry="2.5" style="stroke:#000000;stroke-width:1;" width="193.3506" x="162.18" y="604.4694"/><rect fill="#FFFFFF" height="10" style="stroke:#000000;stroke-width:1;" width="15" x="335.5306" y="609.4694"/><rect fill="#FFFFFF" height="2" style="stroke:#000000;stroke-width:1;" width="4" x="333.5306" y="611.4694"/><rect fill="#FFFFFF" height="2" style="stroke:#000000;stroke-width:1;" width="4" x="333.5306" y="615.4694"/><text fill="#000000" font-family="Verdana" font-size="14" lengthAdjust="spacing" textLength="153.3506" x="177.18" y="637.4645">OpenWeather Service</text></g><!--entity places--><g class="entity" data-entity="places" data-source-line="20" data-uid="ent0012" id="entity_places"><rect fill="#FFFFFF" height="46.2969" rx="2.5" ry="2.5" style="stroke:#000000;stroke-width:1;" width="140.707" x="423.5" y="604.4694"/><rect fill="#FFFFFF" height="10" style="stroke:#000000;stroke-width:1;" width="15" x="544.207" y="609.4694"/><rect fill="#FFFFFF" height="2" style="stroke:#000000;stroke-width:1;" width="4" x="542.207" y="611.4694"/><rect fill="#FFFFFF" height="2" style="stroke:#000000;stroke-width:1;" width="4" x="542.207" y="615.4694"/><text fill="#000000" font-family="Verdana" font-size="14" lengthAdjust="spacing" textLength="100.707" x="438.5" y="637.4645">Places Service</text></g><!--entity user--><g class="entity" data-entity="user" data-source-line="5" data-uid="ent0002" id="entity_user"><ellipse cx="374.8551" cy="65.6094" fill="#FFFFFF" rx="8" ry="8" style="stroke:#000000;stroke-width:1;"/><path d="M374.8551,73.6094 L374.8551,100.6094 M361.8551,81.6094 L387.8551,81.6094 M374.8551,100.6094 L361.8551,115.6094 M374.8551,100.6094 L387.8551,115.6094" fill="none" style="stroke:#000000;stroke-width:1;"/><text fill="#000000" font-family="Verdana" font-size="14" lengthAdjust="spacing" textLength="31.9102" x="358.9" y="130.6045">User</text></g><!--entity openweather_api--><g class="entity" data-entity="openweather_api" data-source-line="23" data-uid="ent0013" id="entity_openweather_api"><path d="M189.0282,738.165 C192.4982,732.9024 196.9336,733.4371 199.2729,739.2142 C202.1361,732.8141 208.1999,732.6148 212.0475,738.1615 C214.9745,733.7775 219.4384,733.4849 222.5649,737.9236 C224.8848,732.205 230.1907,729.6127 234.7195,735.6373 C238.1743,731.7826 242.2998,731.1605 244.7315,736.7247 C247.5217,729.9549 252.8388,730.7055 256.5986,735.7509 C260.4813,729.0932 264.7647,730.1136 268.854,735.5414 C272.1689,730.1231 276.6023,730.8837 279.7682,735.7003 C284.2923,730.3414 287.779,731.3566 291.3264,736.7502 C295.4628,731.9138 299.0427,731.4216 302.2091,737.7 C306.8888,731.9657 311.2652,732.3767 314.5829,739.0575 C317.8418,734.0636 321.2469,733.7737 325.2016,738.2799 C334.9343,740.0053 337.0685,745.5866 332.5475,753.9807 C336.8761,761.8612 335.4817,767.158 326.2405,769.5367 C324.0804,776.5857 318.2951,775.874 314.2516,771.5163 C311.3485,777.1388 306.3437,777.1395 303.5576,771.4061 C301.4352,777.566 296.7731,779.3495 291.6969,774.6248 C287.5408,779.6917 283.7328,780.6105 279.514,774.6943 C277.2744,780.6125 272.3999,782.5362 267.8969,776.9873 C264.9177,781.5019 261.9526,782.474 257.9412,778.15 C253.5794,783.8864 248.307,784.1496 245.034,777.0548 C241.2026,782.5739 236.2887,782.2111 233.3047,776.1934 C229.3895,780.0116 224.2275,779.5352 223.0352,773.3875 C219.0289,779.2284 213.7467,778.3007 211.5505,771.7147 C207.3356,776.9128 202.6872,776.9433 199.512,770.6276 C195.2908,774.8256 191.7112,774.5897 188.3516,769.5829 C178.9383,769.2733 176.484,762.9118 179.6777,755.0682 C175.6262,745.388 177.8894,739.4422 189.0282,738.165" fill="#FFFFFF" style="stroke:#000000;stroke-width:1;"/><text fill="#000000" font-family="Verdana" font-size="14" lengthAdjust="spacing" textLength="123.7578" x="193.98" y="757.7545">OpenWeather API</text></g><!--entity google_api--><g class="entity" data-entity="google_api" data-source-line="24" data-uid="ent0014" id="entity_google_api"><path d="M429.1032,737.8382 C432.9773,732.6088 436.7035,734.206 439.586,738.8871 C443.1469,733.2446 446.7394,731.9677 451.2554,737.9264 C454.4671,732.2491 458.2899,732.0607 462.7741,736.4737 C466.5979,729.8954 472.1847,730.3073 475.4756,736.9843 C478.0527,731.2587 482.4178,731.4281 485.8363,736.15 C489.1572,730.764 494.5249,729.2905 498.5122,735.4163 C501.2773,729.2933 506.8719,729.1285 510.0164,735.0541 C514.1156,731.0039 518.4945,731.8364 520.2097,737.5444 C524.2734,731.3843 528.5075,732.0263 532.2162,737.8987 C536.6346,731.6055 540.9454,731.4587 544.8968,738.3479 C547.8995,732.4161 552.862,733.173 555.9605,738.2518 C559.6439,732.8979 565.2652,733.2597 568.4927,738.7773 C576.7912,742.3542 575.7249,747.7772 570.3459,753.1211 C577.4108,758.8462 576.0932,764.4229 568.5121,768.3889 C565.0043,774.8709 560.5019,775.5794 555.9355,769.4441 C552.6506,775.4123 548.2767,775.0894 544.2424,770.2553 C540.8212,775.8449 534.6504,776.3164 531.8558,769.6234 C529.0278,775.8738 524.2742,776.3066 520.2485,770.8065 C517.8226,776.0743 512.1759,776.5462 508.6343,772.1469 C505.2712,776.963 499.7219,776.7545 497.3918,771.0436 C495.0181,777.3497 489.8682,777.8777 485.9414,772.5756 C482.5599,777.7246 478.4673,776.5919 475.8686,771.7836 C470.1963,777.6428 466.2505,775.698 462.5737,769.5704 C458.8356,774.586 454.3289,775.4573 450.8393,769.3093 C448.8619,775.15 443.7521,775.7114 440.3387,770.6986 C436.371,775.622 431.3824,773.7186 429.2496,768.6602 C420.6488,767.6859 418.6747,760.865 422.7695,754.201 C417.2479,745.5544 418.3813,740.1973 429.1032,737.8382" fill="#FFFFFF" style="stroke:#000000;stroke-width:1;"/><text fill="#000000" font-family="Verdana" font-size="14" lengthAdjust="spacing" textLength="124.9336" x="434.39" y="757.7545">Google Places API</text></g><!--link user to client--><g class="link" data-entity-1="user" data-entity-2="client" data-source-line="26" data-uid="lnk15" id="link_user_client"><path d="M391.2,111.6094 C408.31,128.7294 434.52,158.0794 447.86,188.8994 C453.4,201.7044 457.3638,215.8463 460.1916,229.8914 C461.6055,236.914 462.7354,243.9124 463.6364,250.7074 C463.6927,251.1321 463.7481,251.556 463.8026,251.979 C463.8299,252.1906 463.1005,246.4498 463.1273,246.6609" fill="none" id="user-to-client" style="stroke:#000000;stroke-width:1;"/><polygon fill="#000000" points="463.8838,252.613,466.7172,243.1805,463.2534,247.6529,458.781,244.1891,463.8838,252.613" style="stroke:#000000;stroke-width:1;"/><text fill="#000000" font-family="Verdana" font-size="13" lengthAdjust="spacing" textLength="57.4971" x="443.86" y="176.9663">Interacts</text></g><!--link client to weather--><g class="link" data-entity-1="client" data-entity-2="weather" data-source-line="27" data-uid="lnk16" id="link_client_weather"><path d="M467.2405,360.5827 C467.0685,361.7219 466.8777,362.8635 466.6668,364.0047 C465.8234,368.5694 464.658,373.128 463.0772,377.5045 C459.9156,386.2575 455.0925,394.2819 447.86,400.1694 C430.75,414.0894 66.3,392.4094 50.86,408.1694 C11,448.8294 85.3878,474.4108 151.9178,488.9208" fill="none" id="client-to-weather" style="stroke:#000000;stroke-width:1;"/><polygon fill="#000000" points="157.78,490.1994,149.8391,484.3735,152.8948,489.1339,148.1344,492.1897,157.78,490.1994" style="stroke:#000000;stroke-width:1;"/><text fill="#000000" font-family="Verdana" font-size="13" lengthAdjust="spacing" textLength="153.5688" x="51.86" y="421.2363">GET /api/weather?city=</text></g><!--link weather to client--><g class="link" data-entity-1="weather" data-entity-2="client" data-source-line="32" data-uid="lnk21" id="link_weather_client"><path d="M234.79,480.6794 C237.05,458.2894 244.29,424.9894 266.86,408.1694 C283,396.1394 432.4,413.0594 447.86,400.1694 C454.9075,394.2894 459.6556,386.3813 462.8047,377.7723 C464.3792,373.4679 465.554,368.9882 466.4165,364.4993 C466.6322,363.3771 466.8283,362.2543 467.0063,361.1335 C467.0507,360.8533 466.1987,366.506 466.2409,366.2261" fill="none" id="weather-to-client" style="stroke:#000000;stroke-width:1;"/><polygon fill="#000000" points="467.1364,360.2933,461.838,368.5955,466.3902,365.2373,469.7484,369.7895,467.1364,360.2933" style="stroke:#000000;stroke-width:1;"/><text fill="#000000" font-family="Verdana" font-size="13" lengthAdjust="spacing" textLength="218.2642" x="267.86" y="421.2363">weather + coordinates + air data</text></g><!--link weather to openweather--><g class="link" data-entity-1="weather" data-entity-2="openweather" data-source-line="28" data-uid="lnk17" id="link_weather_openweather"><path d="M161.77,527.8194 C138.09,539.2394 120.81,554.8794 133.86,574.4694 C142.33,587.1894 149.2763,593.9664 162.8063,601.2464" fill="none" id="weather-to-openweather" style="stroke:#000000;stroke-width:1;"/><polygon fill="#000000" points="168.09,604.0894,162.0598,596.3025,163.6869,601.7202,158.2691,603.3474,168.09,604.0894" style="stroke:#000000;stroke-width:1;"/><text fill="#000000" font-family="Verdana" font-size="13" lengthAdjust="spacing" textLength="174.7319" x="134.86" y="570.5363">fetch forecast + air quality</text></g><!--link openweather to weather--><g class="link" data-entity-1="openweather" data-entity-2="weather" data-source-line="31" data-uid="lnk20" id="link_openweather_weather"><path d="M294.5,604.0694 C310.09,591.2094 322.99,574.3194 313.86,557.4694 C307.22,545.2194 301.3394,538.7017 289.6894,531.0217" fill="none" id="openweather-to-weather" style="stroke:#000000;stroke-width:1;"/><polygon fill="#000000" points="284.68,527.7194,289.9926,536.0125,288.8545,530.4713,294.3957,529.3333,284.68,527.7194" style="stroke:#000000;stroke-width:1;"/></g><!--link openweather to openweather_api--><g class="link" data-entity-1="openweather" data-entity-2="openweather_api" data-source-line="29" data-uid="lnk18" id="link_openweather_openweather_api"><path d="M258.31,651.2294 C257.76,673.4794 257.0859,701.2411 256.5459,723.4411" fill="none" id="openweather-to-openweather_api" style="stroke:#000000;stroke-width:1;"/><polygon fill="#000000" points="256.4,729.4394,260.6177,720.5393,256.5216,724.4409,252.62,720.3448,256.4,729.4394" style="stroke:#000000;stroke-width:1;"/><text fill="#000000" font-family="Verdana" font-size="13" lengthAdjust="spacing" textLength="95.583" x="258.86" y="695.8263">HTTPS request</text></g><!--link openweather_api to openweather--><g class="link" data-entity-1="openweather_api" data-entity-2="openweather" data-source-line="30" data-uid="lnk19" id="link_openweather_api_openweather"><path d="M186.14,729.3194 C163.63,717.9594 147.16,702.3994 158.86,682.7594 C166.84,669.3594 174.2205,662.0735 187.8005,654.2535" fill="none" id="openweather_api-to-openweather" style="stroke:#000000;stroke-width:1;"/><polygon fill="#000000" points="193,651.2594,183.2046,652.2842,188.6671,653.7545,187.1968,659.2169,193,651.2594" style="stroke:#000000;stroke-width:1;"/><text fill="#000000" font-family="Verdana" font-size="13" lengthAdjust="spacing" textLength="89.1719" x="159.86" y="695.8263">Forecast data</text></g><!--link client to itinerary--><g class="link" data-entity-1="client" data-entity-2="itinerary" data-source-line="34" data-uid="lnk22" id="link_client_itinerary"><path d="M475.0084,344.1506 C475.0697,344.3545 475.1312,344.5592 475.193,344.7648 C475.4402,345.5871 475.6915,346.4231 475.9467,347.2723 C476.9676,350.6688 478.0515,354.2749 479.1861,358.0494 C481.4552,365.5984 483.9269,373.8213 486.5025,382.3894 C496.805,416.6619 507.0416,450.7137 514.3516,475.0137" fill="none" id="client-to-itinerary" style="stroke:#000000;stroke-width:1;"/><polygon fill="#000000" points="516.08,480.7594,517.3178,470.9886,514.6396,475.9713,509.6569,473.2932,516.08,480.7594" style="stroke:#000000;stroke-width:1;"/><text fill="#000000" font-family="Verdana" font-size="13" lengthAdjust="spacing" textLength="185.4785" x="498.86" y="421.2363">POST /api/generate-itinerary</text></g><!--link itinerary to client--><g class="link" data-entity-1="itinerary" data-entity-2="client" data-source-line="39" data-uid="lnk27" id="link_itinerary_client"><path d="M598.76,489.9994 C656.51,476.2494 721.57,450.7094 692.86,408.1694 C663.035,363.9844 607.82,341.2169 559.4337,329.4881 C535.2406,323.6238 512.7547,320.5191 496.0033,318.8767 C487.6276,318.0555 480.6855,317.6 475.6805,317.3478 C475.5241,317.3399 481.3624,317.6263 481.2097,317.6188" fill="none" id="itinerary-to-client" style="stroke:#000000;stroke-width:1;"/><polygon fill="#000000" points="475.217,317.3247,484.0101,321.761,480.211,317.5698,484.4022,313.7706,475.217,317.3247" style="stroke:#000000;stroke-width:1;"/><text fill="#000000" font-family="Verdana" font-size="13" lengthAdjust="spacing" textLength="159.377" x="699.86" y="421.2363">3-day itinerary response</text></g><!--link itinerary to places--><g class="link" data-entity-1="itinerary" data-entity-2="places" data-source-line="35" data-uid="lnk23" id="link_itinerary_places"><path d="M447.25,509.6194 C413.93,515.7494 377.68,529.0994 356.86,557.4694 C334.47,587.9594 373.2162,604.5831 417.3762,614.5131" fill="none" id="itinerary-to-places" style="stroke:#000000;stroke-width:1;"/><polygon fill="#000000" points="423.23,615.8294,415.3268,609.9523,418.3518,614.7324,413.5717,617.7575,423.23,615.8294" style="stroke:#000000;stroke-width:1;"/><text fill="#000000" font-family="Verdana" font-size="13" lengthAdjust="spacing" textLength="149.4556" x="357.86" y="570.5363">suggest venue per day</text></g><!--link places to itinerary--><g class="link" data-entity-1="places" data-entity-2="itinerary" data-source-line="38" data-uid="lnk26" id="link_places_itinerary"><path d="M502.62,604.0294 C505.88,594.9494 509.39,584.3194 511.86,574.4694 C515.69,559.1394 517.6827,547.4875 519.4827,533.8875" fill="none" id="places-to-itinerary" style="stroke:#000000;stroke-width:1;"/><polygon fill="#000000" points="520.27,527.9394,515.1237,536.3367,519.614,532.8961,523.0545,537.3864,520.27,527.9394" style="stroke:#000000;stroke-width:1;"/><text fill="#000000" font-family="Verdana" font-size="13" lengthAdjust="spacing" textLength="106.7422" x="515.86" y="570.5363">suggested place</text></g><!--link places to google_api--><g class="link" data-entity-1="places" data-entity-2="google_api" data-source-line="36" data-uid="lnk24" id="link_places_google_api"><path d="M546.34,651.1994 C558.89,659.2494 570.71,669.6594 577.86,682.7594 C588.12,701.5894 577.6275,714.5272 557.4275,726.3572" fill="none" id="places-to-google_api" style="stroke:#000000;stroke-width:1;"/><polygon fill="#000000" points="552.25,729.3894,562.0376,728.2928,556.5645,726.8626,557.9948,721.3895,552.25,729.3894" style="stroke:#000000;stroke-width:1;"/><text fill="#000000" font-family="Verdana" font-size="13" lengthAdjust="spacing" textLength="224.3452" x="581.86" y="695.8263">nearby search (based on weather)</text></g><!--link google_api to places--><g class="link" data-entity-1="google_api" data-entity-2="places" data-source-line="37" data-uid="lnk25" id="link_google_api_places"><path d="M470.7,729.4894 C462.76,721.0694 455.04,710.8294 450.86,699.7594 C444.32,682.4794 451.0081,669.1154 463.3981,655.6454" fill="none" id="google_api-to-places" style="stroke:#000000;stroke-width:1;"/><polygon fill="#000000" points="467.46,651.2294,458.4231,655.1454,464.0751,654.9094,464.3111,660.5613,467.46,651.2294" style="stroke:#000000;stroke-width:1;"/><text fill="#000000" font-family="Verdana" font-size="13" lengthAdjust="spacing" textLength="117.0698" x="451.86" y="695.8263">place suggestions</text></g><!--SRC=[RPF1Rjim38RlUWekfmr5riDk1ROX0zekfmPDkXq7LMOT0OwaIdGwO-YxZvAbH7PxiaLz97_gbpxG7Wy8hfFQ246QEeIr8VG62LREmNO8X0TOURNNX8fwZq98HTR3Gq0FCa3FNo6CRH0MFxnzuUK2_Wa0PG_E6ZG4YryzmiDw4N7LwHYA082nXE1rkwUq1BX7qw0Fy8AIfNbuiXwL31H0cWOqQODUUetXSqwuGL9x3D18ad3KSWp0QhCU2QwNkl3YLRmMdTT_dSSGO8l-6EMohf1-vy9_PnttjgSCPcbJRfsL3JLPv0vJziwXANMZ0AqmuPRZxnRVT59XcB0kXU90ghDzCotAmyyB_f5E5_JMsfPzpbKBtAPeuaIq59RBRyMig_5IiEz1v53SBIPTmUtr3YuvzJA7lYjDmrTHW0XNOZZXARbKt8KBaDh3SoyxpXCrEakD-ZZzvswtsOB7vnu3YVd-stOtfL6y9c_gbqElOwV9I_227R6-qKOIdzeeE5MhJ-JaE2TkxhRvK5gCGSBb-KASmPWskiaveMzRdWYEQFZ5E8mj1f6t8tbsYMc3qZyEV7CbFq_u-2W3Dc1DaVn9LFIaJVefpRGreMvHpv0HBfk0cUpJ6NrPiimgaTyMtzs0uZy0]--></g></svg>