<svg xmlns="http://www.w3.org/2000/svg" xmlns:xlink="http://www.w3.org/1999/xlink" contentStyleType="text/css" data-diagram-type="DESCRIPTION" height="264px" preserveAspectRatio="none" style="width:1090px;height:264px;background:#FFFFFF;" version="1.1" viewBox="0 0 1090 264" width="1090px" zoomAndPan="magnify"><defs/><g><!--cluster Browser--><g class="cluster" data-entity="Browser" data-source-line="7" data-uid="ent0003" id="cluster_Browser"><rect fill="#FFFFFF" height="113" rx="2.5" ry="2.5" style="stroke:#000000;stroke-width:1;" width="114.7" x="226.91" y="92.5659"/><text fill="#000000" font-family="Verdana" font-size="14" font-weight="bold" lengthAdjust="spacing" textLength="64.8594" x="251.8303" y="107.561">Browser</text></g><!--cluster Server--><g class="cluster" data-entity="Server" data-source-line="11" data-uid="ent0005" id="cluster_Server"><rect fill="#FFFFFF" height="113" rx="2.5" ry="2.5" style="stroke:#000000;stroke-width:1;" width="144.51" x="577.61" y="58.5659"/><text fill="#000000" font-family="Verdana" font-size="14" font-weight="bold" lengthAdjust="spacing" textLength="52.0078" x="623.8611" y="73.561">Server</text></g><!--cluster External APIs--><g class="cluster" data-entity="External APIs" data-source-line="15" data-uid="ent0007" id="cluster_External APIs"><path d="M892.1514,33.7738 C895.4193,25.4951 901.348,26.5663 906.2894,32.0553 C910.4513,26.1547 914.8077,25.1953 919.6385,31.3125 C924.7212,24.9341 929.9783,25.5456 933.2711,33.0679 C937.5384,25.7823 942.4252,25.1866 947.9134,31.7797 C952.1911,26.3437 956.7449,25.1716 960.9341,31.8746 C965.1266,25.6364 971.6492,25.4635 975.6477,32.0964 C979.3081,25.062 986.6814,23.8406 990.594,31.8458 C994.5579,24.8125 998.6278,25.9819 1003.2662,31.145 C1006.9616,25.1026 1013.9305,25.2493 1017.4038,31.4026 C1021.9821,24.8674 1028.3028,24.0383 1032.8355,31.4531 C1036.9439,26.257 1041.6267,25.8666 1045.4769,31.7479 C1053.936,23.8516 1064.0156,26.6067 1065.82,38.5659 C1067.4555,38.1731 1068.1418,38.9724 1067.8572,40.5505 C1075.6838,45.1255 1076.1541,49.5408 1068.6566,54.9655 C1076.7464,59.377 1077.4076,65.4548 1069.4092,70.6389 C1076.7908,74.2664 1077.6691,79.0273 1072.4906,85.2954 C1079.8531,88.7858 1078.8793,93.4924 1073.6222,98.0982 C1081.6454,102.0574 1081.9485,107.9334 1075.9385,113.944 C1083.0344,120.2343 1079.2484,126.59 1072.0263,129.2115 C1078.6664,133.5525 1078.9814,139.1242 1072.2761,143.6954 C1078.3509,148.3932 1077.1632,156.1105 1070.3947,159.2553 C1076.7061,164.5256 1074.9858,169.613 1067.9272,172.3671 C1076.4396,183.3378 1072.6425,192.1905 1058.82,193.5659 C1060.3178,193.4518 1060.6534,194.3025 1060.2484,195.5548 C1056.6551,203.9894 1050.3237,203.1141 1045.0066,197.4136 C1040.5791,204.0273 1036.0591,203.5507 1031.611,197.4353 C1029.3399,204.6668 1022.7161,205.2623 1018.0044,200.1188 C1014.0464,208.1843 1007.9065,208.4564 1002.8894,201.1609 C999.7396,208.5419 995.2936,207.8947 990.3147,203.0408 C986.3479,209.7177 981.0303,211.2147 975.6212,204.64 C971.1911,209.6876 965.5106,209.2931 962.1899,203.2914 C956.7054,210.4173 950.7204,209.4832 947.4282,201.1922 C942.9255,206.2453 936.0051,206.5486 933.7319,198.8059 C929.8506,206.2855 922.4311,206.9734 918.2494,199.109 C912.8026,203.8 908.7277,203.9487 905.7341,196.5661 C892.9077,204.8417 885.3111,202.3405 883.12,186.5659 C883.4644,186.6355 883.6619,186.8835 883.3971,187.2136 C877.0323,182.2611 877.4209,177.8276 883.8324,173.2741 C875.2171,168.6307 876.3332,163.8441 882.4019,157.8397 C876.0559,153.6813 874.3598,148.6741 881.0672,143.3161 C874.7486,139.451 874.1468,134.185 880.2252,129.561 C871.0104,125.3358 870.7532,119.7791 878.0051,113.3051 C871.1311,107.8366 872.8407,103.1073 879.7063,99.3089 C872.9195,93.0868 873.8309,87.5026 882.1829,83.6794 C874.8612,79.3536 875.9608,72.441 882.7022,68.5995 C876.8125,64.9998 875.9211,58.5076 882.0488,54.3566 C873.5035,44.5423 878.192,34.1296 890.12,31.5659 C891.8165,31.2763 892.5387,32.1462 892.1514,33.7738" fill="#FFFFFF" style="stroke:#000000;stroke-width:1;"/><text fill="#000000" font-family="Verdana" font-size="14" font-weight="bold" lengthAdjust="spacing" textLength="105.4102" x="921.7649" y="49.561">External APIs</text></g><!--entity Vue--><g class="entity" data-entity="Vue" data-source-line="8" data-uid="ent0004" id="entity_Vue"><rect fill="#FFFFFF" height="62.5938" rx="2.5" ry="2.5" style="stroke:#000000;stroke-width:1;" width="82.6973" x="242.91" y="127.2759"/><rect fill="#FFFFFF" height="10" style="stroke:#000000;stroke-width:1;" width="15" x="305.6073" y="132.2759"/><rect fill="#FFFFFF" height="2" style="stroke:#000000;stroke-width:1;" width="4" x="303.6073" y="134.2759"/><rect fill="#FFFFFF" height="2" style="stroke:#000000;stroke-width:1;" width="4" x="303.6073" y="138.2759"/><text fill="#000000" font-family="Verdana" font-size="14" lengthAdjust="spacing" textLength="42.6973" x="257.91" y="160.271">Vue.js</text><text fill="#000000" font-family="Verdana" font-size="14" lengthAdjust="spacing" textLength="40.5303" x="257.91" y="176.5679">Client</text></g><!--entity API--><g class="entity" data-entity="API" data-source-line="12" data-uid="ent0006" id="entity_API"><rect fill="#FFFFFF" height="62.5938" rx="2.5" ry="2.5" style="stroke:#000000;stroke-width:1;" width="112.5088" x="593.61" y="93.2759"/><rect fill="#FFFFFF" height="10" style="stroke:#000000;stroke-width:1;" width="15" x="686.1188" y="98.2759"/><rect fill="#FFFFFF" height="2" style="stroke:#000000;stroke-width:1;" width="4" x="684.1188" y="100.2759"/><rect fill="#FFFFFF" height="2" style="stroke:#000000;stroke-width:1;" width="4" x="684.1188" y="104.2759"/><text fill="#000000" font-family="Verdana" font-size="14" lengthAdjust="spacing" textLength="70.6084" x="608.61" y="126.271">Express.js</text><text fill="#000000" font-family="Verdana" font-size="14" lengthAdjust="spacing" textLength="72.5088" x="608.61" y="142.5679">API Server</text></g><!--entity OWM--><g class="entity" data-entity="OWM" data-source-line="16" data-uid="ent0008" id="entity_OWM"><rect fill="#FFFFFF" height="46.2969" rx="2.5" ry="2.5" style="stroke:#000000;stroke-width:1;" width="166.7041" x="891.12" y="58.4159"/><rect fill="#FFFFFF" height="10" style="stroke:#000000;stroke-width:1;" width="15" x="1037.8241" y="63.4159"/><rect fill="#FFFFFF" height="2" style="stroke:#000000;stroke-width:1;" width="4" x="1035.8241" y="65.4159"/><rect fill="#FFFFFF" height="2" style="stroke:#000000;stroke-width:1;" width="4" x="1035.8241" y="69.4159"/><text fill="#000000" font-family="Verdana" font-size="14" lengthAdjust="spacing" textLength="126.7041" x="906.12" y="91.411">OpenWeatherMap</text></g><!--entity GP--><g class="entity" data-entity="GP" data-source-line="17" data-uid="ent0009" id="entity_GP"><rect fill="#FFFFFF" height="46.2969" rx="2.5" ry="2.5" style="stroke:#000000;stroke-width:1;" width="138.335" x="905.3" y="139.4159"/><rect fill="#FFFFFF" height="10" style="stroke:#000000;stroke-width:1;" width="15" x="1023.635" y="144.4159"/><rect fill="#FFFFFF" height="2" style="stroke:#000000;stroke-width:1;" width="4" x="1021.635" y="146.4159"/><rect fill="#FFFFFF" height="2" style="stroke:#000000;stroke-width:1;" width="4" x="1021.635" y="150.4159"/><text fill="#000000" font-family="Verdana" font-size="14" lengthAdjust="spacing" textLength="98.335" x="920.3" y="172.411">Google Places</text></g><!--entity User--><g class="entity" data-entity="User" data-source-line="5" data-uid="ent0002" id="entity_User"><ellipse cx="26.9551" cy="128.9159" fill="#FFFFFF" rx="8" ry="8" style="stroke:#000000;stroke-width:1;"/><path d="M26.9551,136.9159 L26.9551,163.9159 M13.9551,144.9159 L39.9551,144.9159 M26.9551,163.9159 L13.9551,178.9159 M26.9551,163.9159 L39.9551,178.9159" fill="none" style="stroke:#000000;stroke-width:1;"/><text fill="#000000" font-family="Verdana" font-size="14" lengthAdjust="spacing" textLength="31.9102" x="11" y="193.911">User</text></g><!--link User to Vue--><g class="link" data-entity-1="User" data-entity-2="Vue" data-source-line="20" data-uid="lnk10" id="link_User_Vue"><path d="M43.18,135.8959 C50.86,126.4959 61.07,116.6259 72.91,111.5659 C129.31,87.4659 152.1,94.1459 210.91,111.5659 C222.11,114.8859 228.1152,117.3609 238.1252,123.6309" fill="none" id="User-to-Vue" style="stroke:#000000;stroke-width:1;"/><polygon fill="#000000" points="243.21,126.8159,237.7061,118.6485,238.9726,124.1617,233.4594,125.4283,243.21,126.8159" style="stroke:#000000;stroke-width:1;"/><text fill="#000000" font-family="Verdana" font-size="13" lengthAdjust="spacing" textLength="79.1108" x="102.41" y="92.6328">1. Enter city</text></g><!--link Vue to User--><g class="link" data-entity-1="Vue" data-entity-2="User" data-source-line="25" data-uid="lnk15" id="link_Vue_User"><path d="M242.49,179.4259 C232.42,183.6159 221.49,187.3959 210.91,189.5659 C150.83,201.8959 131.47,207.8059 72.91,189.5659 C62.05,186.1859 56.178,182.9106 48.028,176.4006" fill="none" id="Vue-to-User" style="stroke:#000000;stroke-width:1;"/><polygon fill="#000000" points="43.34,172.6559,47.8756,181.3983,47.2467,175.7765,52.8685,175.1476,43.34,172.6559" style="stroke:#000000;stroke-width:1;"/><text fill="#000000" font-family="Verdana" font-size="13" lengthAdjust="spacing" textLength="112.4233" x="85.91" y="185.6328">6. Display results</text></g><!--link User to Vue--><g class="link" data-entity-1="User" data-entity-2="Vue" data-source-line="27" data-uid="lnk16" id="link_User_Vue"><path d="M43.16,158.5659 C81.81,158.5659 178.81,158.5659 236.56,158.5659" fill="none" id="User-to-Vue-1" style="stroke:#000000;stroke-width:1;"/><polygon fill="#000000" points="242.56,158.5659,233.56,154.5659,237.56,158.5659,233.56,162.5659,242.56,158.5659" style="stroke:#000000;stroke-width:1;"/><text fill="#000000" font-family="Verdana" font-size="13" lengthAdjust="spacing" textLength="136.2905" x="73.91" y="154.6328">7. Generate itinerary</text></g><!--link Vue to User--><g class="link" data-entity-1="Vue" data-entity-2="User" data-source-line="32" data-uid="lnk21" id="link_Vue_User"><path d="M259.34,190.0159 C246.67,204.0459 229.82,219.0759 210.91,226.5659 C153.89,249.1559 126.93,255.6159 72.91,226.5659 C60.2,219.7359 53.5016,212.7295 46.4016,200.5495" fill="none" id="Vue-to-User-1" style="stroke:#000000;stroke-width:1;"/><polygon fill="#000000" points="43.38,195.3659,44.4567,205.1557,45.898,199.6856,51.3682,201.1269,43.38,195.3659" style="stroke:#000000;stroke-width:1;"/><text fill="#000000" font-family="Verdana" font-size="13" lengthAdjust="spacing" textLength="123.7983" x="80.41" y="222.6328">12. Display venues</text></g><!--link Vue to API--><g class="link" data-entity-1="Vue" data-entity-2="API" data-source-line="21" data-uid="lnk11" id="link_Vue_API"><path d="M307.95,126.8859 C320.66,111.9259 337.9,95.6259 357.61,87.5659 C441.53,53.2659 472.76,69.5059 561.61,87.5659 C572.09,89.6959 577.2688,90.985 587.5288,94.925" fill="none" id="Vue-to-API" style="stroke:#000000;stroke-width:1;"/><polygon fill="#000000" points="593.13,97.0759,586.1622,90.1154,588.4623,95.2835,583.2942,97.5836,593.13,97.0759" style="stroke:#000000;stroke-width:1;"/><text fill="#000000" font-family="Verdana" font-size="13" lengthAdjust="spacing" textLength="128.7622" x="395.61" y="63.6328">2. GET /api/weather</text></g><!--link API to Vue--><g class="link" data-entity-1="API" data-entity-2="Vue" data-source-line="24" data-uid="lnk14" id="link_API_Vue"><path d="M609.96,156.2659 C595.63,166.0459 578.71,175.5559 561.61,180.5659 C474.61,206.0859 447.29,193.9059 357.61,180.5659 C347.22,179.0259 342.0113,178.0055 331.8513,174.9855" fill="none" id="API-to-Vue" style="stroke:#000000;stroke-width:1;"/><polygon fill="#000000" points="326.1,173.2759,333.5873,179.6744,330.8928,174.7005,335.8666,172.006,326.1,173.2759" style="stroke:#000000;stroke-width:1;"/><text fill="#000000" font-family="Verdana" font-size="13" lengthAdjust="spacing" textLength="92.8408" x="413.61" y="161.6328">5. Aggregated</text><text fill="#000000" font-family="Verdana" font-size="13" lengthAdjust="spacing" textLength="59.3315" x="430.3646" y="176.7656">response</text></g><!--link Vue to API--><g class="link" data-entity-1="Vue" data-entity-2="API" data-source-line="28" data-uid="lnk17" id="link_Vue_API"><path d="M326.06,149.7659 C336.32,147.8059 347.33,145.9159 357.61,144.5659 C439.28,133.9059 528.6248,128.9567 587.3748,126.5967" fill="none" id="Vue-to-API-1" style="stroke:#000000;stroke-width:1;"/><polygon fill="#000000" points="593.37,126.3559,584.2167,122.7204,588.374,126.5566,584.5378,130.7139,593.37,126.3559" style="stroke:#000000;stroke-width:1;"/><text fill="#000000" font-family="Verdana" font-size="13" lengthAdjust="spacing" textLength="202.0142" x="358.61" y="124.6328">8. POST /api/generate-itinerary</text></g><!--link API to Vue--><g class="link" data-entity-1="API" data-entity-2="Vue" data-source-line="31" data-uid="lnk20" id="link_API_Vue"><path d="M630.4,156.0859 C615.17,178.7159 591.27,207.4459 561.61,220.5659 C478.69,257.2559 442.64,252.0259 357.61,220.5659 C340.7,214.3159 329.3922,206.3074 317.0222,194.3974" fill="none" id="API-to-Vue-1" style="stroke:#000000;stroke-width:1;"/><polygon fill="#000000" points="312.7,190.2359,316.409,199.3597,316.3019,193.7038,321.9577,193.5967,312.7,190.2359" style="stroke:#000000;stroke-width:1;"/><text fill="#000000" font-family="Verdana" font-size="13" lengthAdjust="spacing" textLength="79.936" x="420.11" y="216.6328">11. Itinerary</text></g><!--link API to OWM--><g class="link" data-entity-1="API" data-entity-2="OWM" data-source-line="22" data-uid="lnk12" id="link_API_OWM"><path d="M679.1,93.1359 C694.8,78.0459 715.67,61.5459 738.12,53.5659 C792.78,34.1359 852.8474,43.0053 900.9674,56.3253" fill="none" id="API-to-OWM" style="stroke:#000000;stroke-width:1;"/><polygon fill="#000000" points="906.75,57.9259,899.1433,51.6699,901.9312,56.592,897.0091,59.38,906.75,57.9259" style="stroke:#000000;stroke-width:1;"/><text fill="#000000" font-family="Verdana" font-size="13" lengthAdjust="spacing" textLength="109.4844" x="744.12" y="24.6328">3. Fetch forecast</text><text fill="#000000" font-family="Verdana" font-size="13" lengthAdjust="spacing" textLength="80.5518" x="758.5863" y="39.7656">+ air quality</text></g><!--link OWM to API--><g class="link" data-entity-1="OWM" data-entity-2="API" data-source-line="23" data-uid="lnk13" id="link_OWM_API"><path d="M890.62,92.6159 C832.74,100.3259 762.9774,109.6231 712.2674,116.3831" fill="none" id="OWM-to-API" style="stroke:#000000;stroke-width:1;"/><polygon fill="#000000" points="706.32,117.1759,715.7696,119.9516,711.2762,116.5152,714.7125,112.0217,706.32,117.1759" style="stroke:#000000;stroke-width:1;"/><text fill="#000000" font-family="Verdana" font-size="13" lengthAdjust="spacing" textLength="93.9009" x="752.12" y="79.6328">4. Return data</text><text fill="#000000" font-family="Verdana" font-size="13" lengthAdjust="spacing" textLength="91.3618" x="753.3895" y="94.7656">+ coordinates</text></g><!--link API to GP--><g class="link" data-entity-1="API" data-entity-2="GP" data-source-line="29" data-uid="lnk18" id="link_API_GP"><path d="M706.6,152.0259 C716.86,155.9759 727.64,159.4159 738.12,161.5659 C793.45,172.9359 851.6718,172.6914 899.0318,169.7214" fill="none" id="API-to-GP" style="stroke:#000000;stroke-width:1;"/><polygon fill="#000000" points="905.02,169.3459,895.7873,165.9171,900.0298,169.6589,896.288,173.9014,905.02,169.3459" style="stroke:#000000;stroke-width:1;"/><text fill="#000000" font-family="Verdana" font-size="13" lengthAdjust="spacing" textLength="107.1167" x="745.12" y="142.6328">9. Query venues</text><text fill="#000000" font-family="Verdana" font-size="13" lengthAdjust="spacing" textLength="65.0952" x="766.1307" y="157.7656">for 3 days</text></g><!--link GP to API--><g class="link" data-entity-1="GP" data-entity-2="API" data-source-line="30" data-uid="lnk19" id="link_GP_API"><path d="M915.32,186.1659 C866.71,202.3359 796.2,217.4359 738.12,196.5659 C715.38,188.3959 698.6361,175.6547 682.9261,160.2647" fill="none" id="GP-to-API" style="stroke:#000000;stroke-width:1;"/><polygon fill="#000000" points="678.64,156.0659,682.2699,165.2214,682.2117,159.5649,687.8683,159.5067,678.64,156.0659" style="stroke:#000000;stroke-width:1;"/><text fill="#000000" font-family="Verdana" font-size="13" lengthAdjust="spacing" textLength="119.8311" x="739.12" y="192.6328">10. Return venues</text></g><!--SRC=[PP7DKXin48JlUeeErvIN6FA73rGHuhWuK5v20eSu1w4TrWgoj1bfCQvKtZsZzSO6-oRDzFJq9xrASreG6gUjLuxk4r80stgUK5acaspmAZvOtsZM2znfyr1pQ7rr7bnWBESsaLBQ9BbyZyHAvI7jQqVun64f9VnHW0cB9dZo2JzkMYf-nPa_TrRkFw4ZfAJ-FX-z9dxSdnm_DKmnTjDdvKMlwXpacXsC2ss5W_5J8lRQvN8ysBMPDkHlIGivN-gc6v_UNhxKJ4B8EKgd3SLECYdpWio8mU0qHyO8mm9ZBxjWR5gfNCkzd6s4emAJyJSSwiOUBjVhLEvaXUmJnN61BvJC7FT1q7LCC_yQsZ9-jzfbmopR6hujy9LIonwLJZfhJGXSMQyJnOtrEjYx0cTrpLHBhvfvUJOXYxI9s76CyBx0PnlbzrSGIUjIt4Fy81ZaYSK8DjbyubtKZmNAwNNFMlVgmLRzFzka5F59WQkMU8L7yYt9LmezZeLf5PK8jgx3DnlWjNI7SIYlVx6Ng2SR7ctH-kb_]--></g></svg>