<svg xmlns="http://www.w3.org/2000/svg" xmlns:xlink="http://www.w3.org/1999/xlink" contentStyleType="text/css" data-diagram-type="DESCRIPTION" height="791px" preserveAspectRatio="none" style="width:869px;height:791px;background:#003153;" version="1.1" viewBox="0 0 869 791" width="869px" zoomAndPan="magnify"><title>Internet App System Architecture</title><defs/><g><rect fill="#003153" height="791" style="stroke:none;stroke-width:1;" width="869" x="0" y="0"/><text fill="#D9D3D0" font-family="Verdana" font-size="22" font-weight="bold" lengthAdjust="spacing" textLength="418.9238" x="220.9698" y="35.4209">Internet App System Architecture</text><!--cluster Browser--><g class="cluster" data-entity="Browser" data-source-line="7" data-uid="ent0003" id="cluster_Browser"><polygon fill="#003153" points="78.86,206.8994,88.86,196.8994,507.86,196.8994,507.86,382.1694,497.86,392.1694,78.86,392.1694,78.86,206.8994" style="stroke:#D9D3D0;stroke-width:1;"/><line style="stroke:#D9D3D0;stroke-width:1;" x1="497.86" x2="507.86" y1="206.8994" y2="196.8994"/><line style="stroke:#D9D3D0;stroke-width:1;" x1="78.86" x2="497.86" y1="206.8994" y2="206.8994"/><line style="stroke:#D9D3D0;stroke-width:1;" x1="497.86" x2="497.86" y1="206.8994" y2="392.1694"/><text fill="#D9D3D0" font-family="Verdana" font-size="14" font-weight="bold" lengthAdjust="spacing" textLength="64.8594" x="256.9303" y="222.8945">Browser</text></g><!--cluster client--><g class="cluster" data-entity="client" data-source-line="8" data-uid="ent0004" id="cluster_client"><rect fill="#003153" height="107.27" rx="2.5" ry="2.5" style="stroke:#D9D3D0;stroke-width:1;" width="365" x="110.86" y="252.8994"/><rect fill="#003153" height="10" style="stroke:#D9D3D0;stroke-width:1;" width="15" x="455.86" y="257.8994"/><rect fill="#003153" height="2" style="stroke:#D9D3D0;stroke-width:1;" width="4" x="453.86" y="259.8994"/><rect fill="#003153" height="2" style="stroke:#D9D3D0;stroke-width:1;" width="4" x="453.86" y="263.8994"/><text fill="#D9D3D0" font-family="Verdana" font-size="14" font-weight="bold" lengthAdjust="spacing" textLength="51.748" x="267.486" y="278.8945">Vue UI</text></g><!--cluster server--><g class="cluster" data-entity="server" data-source-line="16" data-uid="ent0008" id="cluster_server"><polygon fill="#003153" points="84.86,451.1694,94.86,441.1694,684.86,441.1694,684.86,656.7594,674.86,666.7594,84.86,666.7594,84.86,451.1694" style="stroke:#D9D3D0;stroke-width:1;"/><line style="stroke:#D9D3D0;stroke-width:1;" x1="674.86" x2="684.86" y1="451.1694" y2="441.1694"/><line style="stroke:#D9D3D0;stroke-width:1;" x1="84.86" x2="674.86" y1="451.1694" y2="451.1694"/><line style="stroke:#D9D3D0;stroke-width:1;" x1="674.86" x2="674.86" y1="451.1694" y2="666.7594"/><text fill="#D9D3D0" font-family="Verdana" font-size="14" font-weight="bold" lengthAdjust="spacing" textLength="118.5625" x="321.5788" y="467.1645">Express Server</text></g><g class="entity" data-entity="GMN5" data-source-line="10" data-uid="ent0006" id="entity_GMN5"><path d="M134.73,295.8994 L134.73,336.165 A0,0 0 0 0 134.73,336.165 L432.9893,336.165 A0,0 0 0 0 432.9893,336.165 L432.9893,305.8994 L422.9893,295.8994 L296.02,295.8994 L359.83,134.3594 L288.02,295.8994 L134.73,295.8994 A0,0 0 0 0 134.73,295.8994" fill="#003153" style="stroke:#D9D3D0;stroke-width:1;"/><path d="M422.9893,295.8994 L422.9893,305.8994 L432.9893,305.8994 L422.9893,295.8994" fill="#003153" style="stroke:#D9D3D0;stroke-width:1;"/><text fill="#D9D3D0" font-family="Verdana" font-size="13" lengthAdjust="spacing" textLength="277.2593" x="140.73" y="312.9663">Renders weather forecasts and itineraries.</text><text fill="#D9D3D0" font-family="Verdana" font-size="13" lengthAdjust="spacing" textLength="176.4712" x="140.73" y="328.0991">Fetches data via Fetch API.</text></g><!--entity weather--><g class="entity" data-entity="weather" data-source-line="17" data-uid="ent0009" id="entity_weather"><rect fill="#003153" height="46.2969" rx="2.5" ry="2.5" style="stroke:#D9D3D0;stroke-width:1;" width="151.2412" x="158.24" y="481.1694"/><rect fill="#003153" height="10" style="stroke:#D9D3D0;stroke-width:1;" width="15" x="289.4812" y="486.1694"/><rect fill="#003153" height="2" style="stroke:#D9D3D0;stroke-width:1;" width="4" x="287.4812" y="488.1694"/><rect fill="#003153" height="2" style="stroke:#D9D3D0;stroke-width:1;" width="4" x="287.4812" y="492.1694"/><text fill="#D9D3D0" font-family="Verdana" font-size="14" lengthAdjust="spacing" textLength="111.2412" x="173.24" y="514.1645">Weather Router</text></g><!--entity itinerary--><g class="entity" data-entity="itinerary" data-source-line="18" data-uid="ent0010" id="entity_itinerary"><rect fill="#003153" height="46.2969" rx="2.5" ry="2.5" style="stroke:#D9D3D0;stroke-width:1;" width="150.8447" x="449.43" y="481.1694"/><rect fill="#003153" height="10" style="stroke:#D9D3D0;stroke-width:1;" width="15" x="580.2747" y="486.1694"/><rect fill="#003153" height="2" style="stroke:#D9D3D0;stroke-width:1;" width="4" x="578.2747" y="488.1694"/><rect fill="#003153" height="2" style="stroke:#D9D3D0;stroke-width:1;" width="4" x="578.2747" y="492.1694"/><text fill="#D9D3D0" font-family="Verdana" font-size="14" lengthAdjust="spacing" textLength="110.8447" x="464.43" y="514.1645">Itinerary Router</text></g><!--entity openweather--><g class="entity" data-entity="openweather" data-source-line="19" data-uid="ent0011" id="entity_openweather"><rect fill="#003153" height="46.2969" rx="2.5" ry="2.5" style="stroke:#D9D3D0;stroke-width:1;" width="193.3506" x="126.18" y="604.4694"/><rect fill="#003153" height="10" style="stroke:#D9D3D0;stroke-width:1;" width="15" x="299.5306" y="609.4694"/><rect fill="#003153" height="2" style="stroke:#D9D3D0;stroke-width:1;" width="4" x="297.5306" y="611.4694"/><rect fill="#003153" height="2" style="stroke:#D9D3D0;stroke-width:1;" width="4" x="297.5306" y="615.4694"/><text fill="#D9D3D0" font-family="Verdana" font-size="14" lengthAdjust="spacing" textLength="153.3506" x="141.18" y="637.4645">OpenWeather Service</text></g><!--entity places--><g class="entity" data-entity="places" data-source-line="20" data-uid="ent0012" id="entity_places"><rect fill="#003153" height="46.2969" rx="2.5" ry="2.5" style="stroke:#D9D3D0;stroke-width:1;" width="140.707" x="415.5" y="604.4694"/><rect fill="#003153" height="10" style="stroke:#D9D3D0;stroke-width:1;" width="15" x="536.207" y="609.4694"/><rect fill="#003153" height="2" style="stroke:#D9D3D0;stroke-width:1;" width="4" x="534.207" y="611.4694"/><rect fill="#003153" height="2" style="stroke:#D9D3D0;stroke-width:1;" width="4" x="534.207" y="615.4694"/><text fill="#D9D3D0" font-family="Verdana" font-size="14" lengthAdjust="spacing" textLength="100.707" x="430.5" y="637.4645">Places Service</text></g><!--entity user--><g class="entity" data-entity="user" data-source-line="5" data-uid="ent0002" id="entity_user"><ellipse cx="375.8551" cy="65.6094" fill="#003153" rx="8" ry="8" style="stroke:#D9D3D0;stroke-width:1;"/><path d="M375.8551,73.6094 L375.8551,100.6094 M362.8551,81.6094 L388.8551,81.6094 M375.8551,100.6094 L362.8551,115.6094 M375.8551,100.6094 L388.8551,115.6094" fill="none" style="stroke:#D9D3D0;stroke-width:1;"/><text fill="#D9D3D0" font-family="Verdana" font-size="14" lengthAdjust="spacing" textLength="31.9102" x="359.9" y="130.6045">User</text></g><!--entity openweather_api--><g class="entity" data-entity="openweather_api" data-source-line="23" data-uid="ent0013" id="entity_openweather_api"><path d="M212.0282,738.165 C215.4982,732.9024 219.9336,733.4371 222.2729,739.2142 C225.1361,732.8141 231.1999,732.6148 235.0475,738.1615 C237.9745,733.7775 242.4384,733.4849 245.5649,737.9236 C247.8848,732.205 253.1907,729.6127 257.7195,735.6373 C261.1743,731.7826 265.2998,731.1605 267.7315,736.7247 C270.5217,729.9549 275.8388,730.7055 279.5986,735.7509 C283.4813,729.0932 287.7647,730.1136 291.854,735.5414 C295.1689,730.1231 299.6023,730.8837 302.7682,735.7003 C307.2923,730.3414 310.779,731.3566 314.3264,736.7502 C318.4628,731.9138 322.0427,731.4216 325.2091,737.7 C329.8888,731.9657 334.2652,732.3767 337.5829,739.0575 C340.8418,734.0636 344.2469,733.7737 348.2016,738.2799 C357.9343,740.0053 360.0685,745.5866 355.5475,753.9807 C359.8761,761.8612 358.4817,767.158 349.2405,769.5367 C347.0804,776.5857 341.2951,775.874 337.2516,771.5163 C334.3485,777.1388 329.3437,777.1395 326.5576,771.4061 C324.4352,777.566 319.7731,779.3495 314.6969,774.6248 C310.5408,779.6917 306.7328,780.6105 302.514,774.6943 C300.2744,780.6125 295.3999,782.5362 290.8969,776.9873 C287.9177,781.5019 284.9526,782.474 280.9412,778.15 C276.5794,783.8864 271.307,784.1496 268.034,777.0548 C264.2026,782.5739 259.2887,782.2111 256.3047,776.1934 C252.3895,780.0116 247.2275,779.5352 246.0352,773.3875 C242.0289,779.2284 236.7467,778.3007 234.5505,771.7147 C230.3356,776.9128 225.6872,776.9433 222.512,770.6276 C218.2908,774.8256 214.7112,774.5897 211.3516,769.5829 C201.9383,769.2733 199.484,762.9118 202.6777,755.0682 C198.6262,745.388 200.8894,739.4422 212.0282,738.165" fill="#003153" style="stroke:#D9D3D0;stroke-width:1;"/><text fill="#D9D3D0" font-family="Verdana" font-size="14" lengthAdjust="spacing" textLength="123.7578" x="216.98" y="757.7545">OpenWeather API</text></g><!--entity google_api--><g class="entity" data-entity="google_api" data-source-line="24" data-uid="ent0014" id="entity_google_api"><path d="M464.1032,737.8382 C467.9773,732.6088 471.7035,734.206 474.586,738.8871 C478.1469,733.2446 481.7394,731.9677 486.2554,737.9264 C489.4671,732.2491 493.2899,732.0607 497.7741,736.4737 C501.5979,729.8954 507.1847,730.3073 510.4756,736.9843 C513.0527,731.2587 517.4178,731.4281 520.8363,736.15 C524.1572,730.764 529.5249,729.2905 533.5122,735.4163 C536.2773,729.2933 541.8719,729.1285 545.0164,735.0541 C549.1156,731.0039 553.4945,731.8364 555.2097,737.5444 C559.2734,731.3843 563.5075,732.0263 567.2162,737.8987 C571.6346,731.6055 575.9454,731.4587 579.8968,738.3479 C582.8995,732.4161 587.862,733.173 590.9605,738.2518 C594.6439,732.8979 600.2652,733.2597 603.4927,738.7773 C611.7912,742.3542 610.7249,747.7772 605.3459,753.1211 C612.4108,758.8462 611.0932,764.4229 603.5121,768.3889 C600.0043,774.8709 595.5019,775.5794 590.9355,769.4441 C587.6506,775.4123 583.2767,775.0894 579.2424,770.2553 C575.8212,775.8449 569.6504,776.3164 566.8558,769.6234 C564.0278,775.8738 559.2742,776.3066 555.2485,770.8065 C552.8226,776.0743 547.1759,776.5462 543.6343,772.1469 C540.2712,776.963 534.7219,776.7545 532.3918,771.0436 C530.0181,777.3497 524.8682,777.8777 520.9414,772.5756 C517.5599,777.7246 513.4673,776.5919 510.8686,771.7836 C505.1963,777.6428 501.2505,775.698 497.5737,769.5704 C493.8356,774.586 489.3289,775.4573 485.8393,769.3093 C483.8619,775.15 478.7521,775.7114 475.3387,770.6986 C471.371,775.622 466.3824,773.7186 464.2496,768.6602 C455.6488,767.6859 453.6747,760.865 457.7695,754.201 C452.2479,745.5544 453.3813,740.1973 464.1032,737.8382" fill="#003153" style="stroke:#D9D3D0;stroke-width:1;"/><text fill="#D9D3D0" font-family="Verdana" font-size="14" lengthAdjust="spacing" textLength="124.9336" x="469.39" y="757.7545">Google Places API</text></g><!--link user to client--><g class="link" data-entity-1="user" data-entity-2="client" data-source-line="26" data-uid="lnk15" id="link_user_client"><path d="M392.2,111.6094 C409.31,128.7294 435.52,158.0794 448.86,188.8994 C454.4,201.7044 458.3638,215.8463 461.1916,229.8914 C462.6055,236.914 463.7354,243.9124 464.6364,250.7074 C464.6927,251.1321 464.7481,251.556 464.8026,251.979 C464.8299,252.1906 464.1005,246.4498 464.1273,246.6609" fill="none" id="user-to-client" style="stroke:#D9D3D0;stroke-width:1;"/><polygon fill="#D9D3D0" points="464.8838,252.613,467.7172,243.1805,464.2534,247.6529,459.781,244.1891,464.8838,252.613" style="stroke:#D9D3D0;stroke-width:1;"/><text fill="#D9D3D0" font-family="Verdana" font-size="13" lengthAdjust="spacing" textLength="57.4971" x="444.86" y="176.9663">Interacts</text></g><!--link client to weather--><g class="link" data-entity-1="client" data-entity-2="weather" data-source-line="27" data-uid="lnk16" id="link_client_weather"><path d="M468.2405,360.5827 C468.0685,361.7219 467.8777,362.8635 467.6668,364.0047 C466.8234,368.5694 465.658,373.128 464.0772,377.5045 C460.9156,386.2575 456.0925,394.2819 448.86,400.1694 C431.7,414.1294 66.34,392.3694 50.86,408.1694 C11,448.8294 85.3878,474.4108 151.9178,488.9208" fill="none" id="client-to-weather" style="stroke:#D9D3D0;stroke-width:1;"/><polygon fill="#D9D3D0" points="157.78,490.1994,149.8391,484.3735,152.8948,489.1339,148.1344,492.1897,157.78,490.1994" style="stroke:#D9D3D0;stroke-width:1;"/><text fill="#D9D3D0" font-family="Verdana" font-size="13" lengthAdjust="spacing" textLength="153.5688" x="51.86" y="421.2363">GET /api/weather?city=</text></g><!--link weather to client--><g class="link" data-entity-1="weather" data-entity-2="client" data-source-line="32" data-uid="lnk21" id="link_weather_client"><path d="M234.54,480.6994 C236.56,458.3194 243.43,425.0394 265.86,408.1694 C282.12,395.9294 433.22,413.1994 448.86,400.1694 C455.91,394.2919 460.6594,386.385 463.8089,377.7766 C465.3837,373.4723 466.5585,368.9927 467.4209,364.5037 C467.6365,363.3815 467.8326,362.2586 468.0105,361.1378 C468.055,360.8576 467.2032,366.5103 467.2454,366.2304" fill="none" id="weather-to-client" style="stroke:#D9D3D0;stroke-width:1;"/><polygon fill="#D9D3D0" points="468.1406,360.2976,462.8426,368.6,467.3946,365.2416,470.7531,369.7936,468.1406,360.2976" style="stroke:#D9D3D0;stroke-width:1;"/><text fill="#D9D3D0" font-family="Verdana" font-size="13" lengthAdjust="spacing" textLength="220.4858" x="266.86" y="421.2363">Weather + coordinates + air data</text></g><!--link weather to openweather--><g class="link" data-entity-1="weather" data-entity-2="openweather" data-source-line="28" data-uid="lnk17" id="link_weather_openweather"><path d="M165.07,527.8494 C152.25,535.2494 140.5,544.9094 132.86,557.4694 C121.17,576.6494 132.4376,589.6514 154.4176,601.2914" fill="none" id="weather-to-openweather" style="stroke:#D9D3D0;stroke-width:1;"/><polygon fill="#D9D3D0" points="159.72,604.0994,153.6384,596.3525,155.3014,601.7594,149.8944,603.4223,159.72,604.0994" style="stroke:#D9D3D0;stroke-width:1;"/><text fill="#D9D3D0" font-family="Verdana" font-size="13" lengthAdjust="spacing" textLength="177.6328" x="133.86" y="570.5363">Fetch forecast + air quality</text></g><!--link openweather to weather--><g class="link" data-entity-1="openweather" data-entity-2="weather" data-source-line="31" data-uid="lnk20" id="link_openweather_weather"><path d="M284.63,604.1094 C297.07,596.6294 308.56,586.9194 315.86,574.4694 C326.82,555.7494 316.0233,542.727 295.3333,530.847" fill="none" id="openweather-to-weather" style="stroke:#D9D3D0;stroke-width:1;"/><polygon fill="#D9D3D0" points="290.13,527.8594,295.9431,535.8097,294.466,530.3491,299.9267,528.872,290.13,527.8594" style="stroke:#D9D3D0;stroke-width:1;"/></g><!--link openweather to openweather_api--><g class="link" data-entity-1="openweather" data-entity-2="openweather_api" data-source-line="29" data-uid="lnk18" id="link_openweather_openweather_api"><path d="M263.62,651.0294 C274.86,659.3994 285.66,670.0294 291.86,682.7594 C298.96,697.3694 297.296,709.8549 292.016,723.8649" fill="none" id="openweather-to-openweather_api" style="stroke:#D9D3D0;stroke-width:1;"/><polygon fill="#D9D3D0" points="289.9,729.4794,296.8169,722.4683,291.6633,724.8006,289.3309,719.647,289.9,729.4794" style="stroke:#D9D3D0;stroke-width:1;"/><text fill="#D9D3D0" font-family="Verdana" font-size="13" lengthAdjust="spacing" textLength="95.583" x="296.86" y="695.8263">HTTPS request</text></g><!--link openweather_api to openweather--><g class="link" data-entity-1="openweather_api" data-entity-2="openweather" data-source-line="30" data-uid="lnk19" id="link_openweather_api_openweather"><path d="M201.49,735.3294 C183.2,727.5994 165.84,716.2994 154.86,699.7594 C142.94,681.8294 154.2479,667.6528 173.8579,654.4928" fill="none" id="openweather_api-to-openweather" style="stroke:#D9D3D0;stroke-width:1;"/><polygon fill="#D9D3D0" points="178.84,651.1494,169.1379,652.8431,174.6882,653.9356,173.5958,659.4859,178.84,651.1494" style="stroke:#D9D3D0;stroke-width:1;"/><text fill="#D9D3D0" font-family="Verdana" font-size="13" lengthAdjust="spacing" textLength="127.4546" x="155.86" y="695.8263">Forecast + AQ data</text></g><!--link client to itinerary--><g class="link" data-entity-1="client" data-entity-2="itinerary" data-source-line="34" data-uid="lnk22" id="link_client_itinerary"><path d="M475.9657,343.5417 C476.0893,343.9459 476.2141,344.3536 476.3399,344.7648 C476.5914,345.5871 476.8472,346.4231 477.107,347.2723 C478.1461,350.6688 479.2494,354.2749 480.4042,358.0494 C482.7138,365.5984 485.2297,373.8213 487.8513,382.3894 C498.3375,416.6619 508.7595,450.7219 516.1945,475.0219" fill="none" id="client-to-itinerary" style="stroke:#D9D3D0;stroke-width:1;"/><polygon fill="#D9D3D0" points="517.95,480.7594,519.1418,470.9829,516.4871,475.9782,511.4918,473.3235,517.95,480.7594" style="stroke:#D9D3D0;stroke-width:1;"/><text fill="#D9D3D0" font-family="Verdana" font-size="13" lengthAdjust="spacing" textLength="185.4785" x="499.86" y="421.2363">POST /api/generate-itinerary</text></g><!--link itinerary to client--><g class="link" data-entity-1="itinerary" data-entity-2="client" data-source-line="39" data-uid="lnk27" id="link_itinerary_client"><path d="M600.61,489.8294 C657.97,476.0094 722.4,450.4494 693.86,408.1694 C664.035,363.9844 608.82,341.2169 560.4337,329.4881 C536.2406,323.6238 513.7547,320.5191 497.0033,318.8767 C488.6276,318.0555 481.6855,317.6 476.6805,317.3478 C476.5241,317.3399 482.3624,317.6263 482.2097,317.6188" fill="none" id="itinerary-to-client" style="stroke:#D9D3D0;stroke-width:1;"/><polygon fill="#D9D3D0" points="476.217,317.3247,485.0101,321.761,481.211,317.5698,485.4022,313.7706,476.217,317.3247" style="stroke:#D9D3D0;stroke-width:1;"/><text fill="#D9D3D0" font-family="Verdana" font-size="13" lengthAdjust="spacing" textLength="159.377" x="700.86" y="421.2363">3-day itinerary response</text></g><!--link itinerary to places--><g class="link" data-entity-1="itinerary" data-entity-2="places" data-source-line="35" data-uid="lnk23" id="link_itinerary_places"><path d="M449.25,509.6194 C415.93,515.7494 379.68,529.0994 358.86,557.4694 C338.58,585.0894 370.2369,601.3575 409.6269,611.9775" fill="none" id="itinerary-to-places" style="stroke:#D9D3D0;stroke-width:1;"/><polygon fill="#D9D3D0" points="415.42,613.5394,407.7716,607.3344,410.5924,612.2378,405.689,615.0586,415.42,613.5394" style="stroke:#D9D3D0;stroke-width:1;"/><text fill="#D9D3D0" font-family="Verdana" font-size="13" lengthAdjust="spacing" textLength="150.9346" x="359.86" y="570.5363">Suggest venue per day</text></g><!--link places to itinerary--><g class="link" data-entity-1="places" data-entity-2="itinerary" data-source-line="38" data-uid="lnk26" id="link_places_itinerary"><path d="M500.74,604.0894 C505.98,595.1894 511.41,584.6694 514.86,574.4694 C519.94,559.4094 521.9054,547.6355 523.1354,533.8855" fill="none" id="places-to-itinerary" style="stroke:#D9D3D0;stroke-width:1;"/><polygon fill="#D9D3D0" points="523.67,527.9094,518.884,536.5172,523.2245,532.8895,526.8522,537.23,523.67,527.9094" style="stroke:#D9D3D0;stroke-width:1;"/><text fill="#D9D3D0" font-family="Verdana" font-size="13" lengthAdjust="spacing" textLength="113.4136" x="519.86" y="570.5363">Suggested venue</text></g><!--link places to google_api--><g class="link" data-entity-1="places" data-entity-2="google_api" data-source-line="36" data-uid="lnk24" id="link_places_google_api"><path d="M556.57,647.8694 C573.24,655.8894 589,667.1194 598.86,682.7594 C609.81,700.1594 599.7358,713.4318 581.1558,726.0318" fill="none" id="places-to-google_api" style="stroke:#D9D3D0;stroke-width:1;"/><polygon fill="#D9D3D0" points="576.19,729.3994,585.8838,727.6586,580.3282,726.5931,581.3937,721.0375,576.19,729.3994" style="stroke:#D9D3D0;stroke-width:1;"/><text fill="#D9D3D0" font-family="Verdana" font-size="13" lengthAdjust="spacing" textLength="259.0034" x="602.86" y="695.8263">Nearby search (type based on weather)</text></g><!--link google_api to places--><g class="link" data-entity-1="google_api" data-entity-2="places" data-source-line="37" data-uid="lnk25" id="link_google_api_places"><path d="M496.91,729.5094 C487.3,721.4094 478.08,711.3494 472.86,699.7594 C465.94,684.4194 467.7692,671.2844 473.0392,656.8744" fill="none" id="google_api-to-places" style="stroke:#D9D3D0;stroke-width:1;"/><polygon fill="#D9D3D0" points="475.1,651.2394,468.2521,658.318,473.3827,655.9352,475.7654,661.0657,475.1,651.2394" style="stroke:#D9D3D0;stroke-width:1;"/><text fill="#D9D3D0" font-family="Verdana" font-size="13" lengthAdjust="spacing" textLength="116.8032" x="473.86" y="695.8263">Venue candidates</text></g><!--SRC=[RLF1Rjim3BthAxYSMXHP3xiLs8OCwBfSrhHEk-EWofmZm95KYKvd5FttKRAKs5vFjgZto4S-yGFjS8_mr7Rel3Oa16bg4TQ6q1iaM3a7LHy8zx3oQgS95NKUXP2Ah8U7W1vaW8w_GXXR8oo-UVl2nmMy2W1bzyuQD0IBnmxXORs8SDNg68e006C9mUjcH-a8S8-cHX_W1INBy_37UbGoK01fQj2a3NhfDOQFcV0TIUqmG2r9ma7B8G2hpNf0SBvKXGzlugtelFxhF8O05Vf3bCkwGlgT2_-LTTpRZZ8mIvlYrbbPFqOMkVqKU-lGbBnHW5QOu9RZxoRVj59Xc61T2iM6L6kxUfgKcvyd_2sTBj0RQnlsEMSju2P54qv4Is6v_5BCkXeU1ViUH0x5ssBI5TnSR-6IgPSvz5LfwZ-B0eZWaHWc32uLT-42fFRmtCcMUM8CdL6ZFgR_s6ut5NXyxZ2GcD-_K-vKQ7MNtif_HShanx5Z-sMo5soBzRKsadXqW-gKRJoMe-rCtDnMUJ8DnY3XylGgJi186onbJjKr3RS51pIyDWvZYLxawuWyMSNedoZzKy_FL_AEmXdrZdTQ1gp1cjBKkHXH9hKUKmt5owNhsDEupBYFh8cp9bKpwSSvVLgor16HbumVSK3n3m00]--></g></svg>